<svg xmlns="http://www.w3.org/2000/svg" xmlns:xlink="http://www.w3.org/1999/xlink" viewBox="0 0 748.25 535.55">
  <defs>
    <radialGradient id="未命名的渐变_643" data-name="未命名的渐变 643" cx="540.56" cy="31.36" r="281.64" gradientUnits="userSpaceOnUse">
      <stop offset="0" stop-color="#56c1fc"/>
      <stop offset="1" stop-color="#3a8cfc"/>
    </radialGradient>
    <radialGradient id="未命名的渐变_636" data-name="未命名的渐变 636" cx="545.46" cy="86.93" r="251.94" gradientUnits="userSpaceOnUse">
      <stop offset="0" stop-color="#5577e5"/>
      <stop offset="1" stop-color="#3f3ee5"/>
    </radialGradient>
    <linearGradient id="未命名的渐变_170" data-name="未命名的渐变 170" x1="310.27" y1="246.45" x2="373.68" y2="246.45" gradientUnits="userSpaceOnUse">
      <stop offset="0" stop-color="#30a4e4"/>
      <stop offset="1" stop-color="#9dd0e4"/>
    </linearGradient>
    <linearGradient id="未命名的渐变_6" data-name="未命名的渐变 6" x1="315.94" y1="246.45" x2="368.03" y2="246.45" gradientTransform="translate(147.71 -127.65) rotate(26.78)" gradientUnits="userSpaceOnUse">
      <stop offset="0" stop-color="#85d0e4"/>
      <stop offset="1" stop-color="#bbd0e4"/>
    </linearGradient>
    <linearGradient id="未命名的渐变_14" data-name="未命名的渐变 14" x1="326.78" y1="246.45" x2="357.19" y2="246.45" gradientTransform="translate(147.71 -127.65) rotate(26.78)" gradientUnits="userSpaceOnUse">
      <stop offset="0" stop-color="#87d0e5"/>
      <stop offset="0.3" stop-color="#6ecae1"/>
      <stop offset="0.95" stop-color="#2dbbd6"/>
      <stop offset="1" stop-color="#28bad5"/>
    </linearGradient>
    <linearGradient id="未命名的渐变_18" data-name="未命名的渐变 18" x1="-646.16" y1="904.08" x2="-653.09" y2="923.22" gradientTransform="matrix(-0.57, 0.46, -0.17, -1.61, 115.94, 1994.39)" gradientUnits="userSpaceOnUse">
      <stop offset="0" stop-color="#fff" stop-opacity="0"/>
      <stop offset="0.22" stop-color="#fff" stop-opacity="0.24"/>
      <stop offset="0.6" stop-color="#fff" stop-opacity="0.64"/>
      <stop offset="0.87" stop-color="#fff" stop-opacity="0.9"/>
      <stop offset="1" stop-color="#fff"/>
    </linearGradient>
    <linearGradient id="未命名的渐变_18-2" x1="-642.6" y1="882.74" x2="-645.85" y2="891.75" gradientTransform="matrix(0.57, -0.46, 0.17, 1.61, 568.88, -1447.8)" xlink:href="#未命名的渐变_18"/>
    <linearGradient id="未命名的渐变_18-3" x1="583.3" y1="93.68" x2="494.98" y2="0.13" gradientTransform="translate(18.03 200.46) rotate(-21.22)" xlink:href="#未命名的渐变_18"/>
    <linearGradient id="未命名的渐变_18-4" x1="587.83" y1="89.4" x2="499.51" y2="-4.14" gradientTransform="translate(18.03 200.46) rotate(-21.22)" xlink:href="#未命名的渐变_18"/>
    <linearGradient id="未命名的渐变_651" data-name="未命名的渐变 651" x1="61.5" y1="443.89" x2="365.54" y2="255.9" gradientUnits="userSpaceOnUse">
      <stop offset="0" stop-color="#fff" stop-opacity="0"/>
      <stop offset="0.22" stop-color="#e8e5ff" stop-opacity="0.24"/>
      <stop offset="0.6" stop-color="#c0b9ff" stop-opacity="0.64"/>
      <stop offset="0.87" stop-color="#a79dff" stop-opacity="0.9"/>
      <stop offset="1" stop-color="#9d92ff"/>
    </linearGradient>
  </defs>
  <g style="isolation: isolate">
    <g id="Layer_2" data-name="Layer 2">
      <g id="图层_2" data-name="图层 2">
        <g>
          <g>
            <g>
              <path d="M742.22,347.87c-.19-5.52-3.36-8.49-8.82-3.87-8.78,7.43-25.79,13.5-35.89,16.65l3.31-1.37L699,355.72l-.74.44c7.38-7.34,13.78-17.76,18-27.16,2.34-5.18,2-14,0-21h0c-3.07-10.53-10.07-16.84-17.89,0a74.94,74.94,0,0,1-32.22,34.23c.19-.27.39-.54.57-.83l-3.5-1.93c-.8,1.75-1.76,3.56-2.74,5.3l-.09.15h0c8-15.07,5-35.92,0-51.21a19.58,19.58,0,0,0-7.38-9.93c-8.25-5.82-19.62-4.56-19.62,6.22,0,7.83-1.29,21.88-2.52,33.5-.61,5.84-1.21,11.07-1.63,14.6-17.44-10.81-31.59-26.2-39.66-37a161.62,161.62,0,0,0,55.9-201.5c-.86-1.85-1.76-3.67-2.68-5.48.22-.62.44-1.23.64-1.84,2.78-8.62,2.51-15.91-.81-21.66l-.25-.42c-1.59-2.8-4-7-11.44-9.14l-.54-.16-.06,0-.09-.08-.46-.13A46.39,46.39,0,0,0,620,58.39l-2.35-.31A161.49,161.49,0,0,0,337.61,159.42a22.52,22.52,0,0,0-3-.22,16.77,16.77,0,0,0-7.59,1.74l-20,10.32c-8.24-.07-23.95-2.84-23.88-22.83,6.56-.74,11.77-1.62,13.79-2.43,7.5-3-1.5-10.05,0-15s12.55-6,20.53-9,23-33,13-44c-5.17-5.68-9.54-8.43-13.1-9.2a8.16,8.16,0,0,0-7.9,2.2c-1.68,1.68-1.6,3.66-.9,5.7,1,2.81,3.11,5.74,3.4,8.14.39,3.28-3.26,8-10.47,8h0a21.26,21.26,0,0,1-6.52-1.11c-.42-.13-.83-.29-1.24-.46l.73.2,1-3.86a22.71,22.71,0,0,0-2.88-.39c-.94-.07-1.87-.1-2.8-.09s-1.57,0-2.35.12A16.63,16.63,0,0,1,282,76.34a11.25,11.25,0,0,1,5.11-10c10.34-7.32,14.23,1.32,21.28,0,3.7-.7,7.12-1.3,8.94-3.31h0c1.65-1.82,2-4.78.1-10-4-11-20.68-17.4-30.34-13.2S263.4,44,257.4,69c0,0-2-27,9-33s13.27-10.39,8-15c-8-7-24-4-35,9s-5.61,27.37-5,37c0,0-15-12-10-27,1.16-3.48.92-5.72-.17-6.9C220.62,29.2,207.7,37,205.4,50c-2.72,15.44,3.78,27.37,13.1,36.36-.5.38-1,.78-1.51,1.23l2.83,2.82c.46-.48,1-1,1.52-1.47l.06.06s-6,14,0,26a34,34,0,0,0,17,16,.82.82,0,0,1,0,.11c-.65,0-1.31-.06-2-.11v4l.72-.07c-1,3.46-1.91,8.48-.72,12.07.7,2.1,7.41,3,16.15,3.1-.14,14.34,4.7,36.3,32.17,49.5a71.17,71.17,0,0,0,.1,10.28c1.26,16.33,7.25,35.82,16.86,54.88,17.38,34.42,41.93,58.47,59.7,58.47a16.67,16.67,0,0,0,7.58-1.74h0l31-16a17,17,0,0,0,6.33-5.7A161.75,161.75,0,0,0,520.6,327.55c1.29-.17,2.56-.36,3.84-.56l1.42-.24c.8-.14,1.6-.27,2.4-.42l1.17-.23c.88-.16,1.77-.33,2.64-.51l.85-.19c1-.21,2-.42,2.94-.65l.58-.15c1.06-.25,2.12-.51,3.17-.78l.39-.1,3.33-.91.26-.08c1.15-.33,2.28-.67,3.41-1l.23-.07c1.14-.36,2.27-.73,3.4-1.11h0l.3-.1.82-.29c9,20.85,26.56,33.72,34.2,38.56-1.07,7.82,6,19.13,10.29,25.16-.29-.09-.57-.18-.83-.28l-1.07,3.86a23.67,23.67,0,0,0,3.12.33c.59,0,1.17.05,1.75,0l.16.2s-5,1-18-5a14.06,14.06,0,0,0-8.3-1.3,9.3,9.3,0,0,0-3.54,1.36c-5.63,3.65-6.24,13.51,6.84,25.94,20,19,42.89,11,42.89,11,18.39,16.87,32.48,6.63,37.3,2-.05.2-.09.42-.14.62l3.91.84c.19-1.39.31-2.74.39-4.07,25-7.44,22.83-26.91,25.52-34.94a5.32,5.32,0,0,0,.63,1.09l3.07-4.13c-.33-.26-.65-.49-1-.72,5.37-3.88,17.34-2.91,35.39-8.65,12.74-4.05,18.1-16.49,17.83-24.1Z" fill="#390176"/>
              <g>
                <path d="M639.6,435.33c-7.4,0-14.73-2.93-21.84-8.73a49.29,49.29,0,0,1-10.35,1.07,50.21,50.21,0,0,1-35.14-14.32c-11.16-10.61-12.92-19.13-12.43-24.41A14.26,14.26,0,0,1,566.3,378a15.19,15.19,0,0,1,5.81-2.25,18.15,18.15,0,0,1,3-.25,21,21,0,0,1,8.8,2l1.75.79c-2.95-5.33-5.32-11.12-5.73-16.45-8.09-5.55-22.25-17.05-31.3-34.41-1.12.35-2.25.69-3.39,1l-.27.09c-1.15.32-2.3.64-3.46.94l-.39.1c-1.1.29-2.2.56-3.3.82l-.59.15c-1,.24-2,.46-3.06.68l-.88.19-2.68.53-1.27.24c-.67.13-1.35.24-2,.35l-1,.17-.94.16c-1.32.21-2.65.41-4,.59a169.72,169.72,0,0,1-22.5,1.5,166.47,166.47,0,0,1-91.63-27.28,22,22,0,0,1-4.61,3.13l-36.35,18.76-.41-.81a24,24,0,0,1-4.52.43c-20.27,0-46.41-24.83-65.05-61.77-10-19.74-16.18-40-17.49-57.12-.19-2.44-.28-4.83-.25-7.14-24.39-13.22-30.68-33.37-31.83-47.3-10.21-.62-14.59-2.63-16-7-1-3.13-1.14-7-.31-11.57v-3.79A40.32,40.32,0,0,1,216,117.68c-4.47-8.94-3.53-18.56-2.12-24.68l-4.09-7.13c-9.25-11-12.72-23.39-10.33-36.91,2.3-13.09,13.56-22.87,22.08-22.87a9.14,9.14,0,0,1,9,6.22,35.87,35.87,0,0,1,4.23-6.19c7.85-9.26,18.61-14.79,28.8-14.79a22,22,0,0,1,14.74,5.15c4.4,3.86,5,7.75,4.7,10.34-.5,4.51-3.86,8-8,10.94,1.69-.66,3.33-1.21,4.88-1.73,1.72-.58,3.34-1.12,4.74-1.73a23,23,0,0,1,9.25-1.8c11,0,24.92,6.9,29.12,18.45.82,2.24,3.08,8.44.35,13.72,3.69,1.84,7.47,4.92,11.45,9.29,4.88,5.36,6.14,13.67,3.65,24-2.87,12-11.17,26.71-18.93,29.64-2.7,1-5.56,1.79-8.32,2.53-2.55.69-6.59,1.77-8.3,2.74.23.63.61,1.46.89,2.08,1.31,2.85,3.09,6.76,1.43,10.9a10.33,10.33,0,0,1-6.13,5.7,46.69,46.69,0,0,1-9.52,2.08c2.23,10.27,11.28,11.43,16,11.59l18.66-9.63a22.21,22.21,0,0,1,7.76-2.27A167.34,167.34,0,0,1,498.53,0h.38A168,168,0,0,1,620.59,52.41l.22,0A53.21,53.21,0,0,1,631.6,55l1.8.49.15.15A23,23,0,0,1,647.6,67.24l.24.41c4.14,7.16,4.63,15.92,1.46,26.05.59,1.19,1.13,2.31,1.63,3.38A167.51,167.51,0,0,1,598.2,302.37a151.89,151.89,0,0,0,26.21,25.19c.17-1.5.34-3.07.51-4.69,1.63-15.37,2.48-26.74,2.48-32.87,0-9.36,6.24-15.65,15.52-15.65a23.88,23.88,0,0,1,13.56,4.53,25.39,25.39,0,0,1,9.63,13c2.53,7.74,6.94,24.4,4.5,40.56A68.72,68.72,0,0,0,693,305.47c1.6-3.43,6.44-13.87,15.11-13.87,3.62,0,10.25,1.92,14,14.72l.23.82v.05c2,7.35,2.54,17.47-.54,24.28a112.43,112.43,0,0,1-10,17.74c7.94-3.27,14.06-6.61,17.81-9.79,2.9-2.45,5.81-3.7,8.66-3.7,4.51,0,9.17,3.28,9.94,10.56l.1.2v1.29c.35,11-7.23,25.25-22,30a150,150,0,0,1-23,5.18c-3.12.51-6,1-8,1.53l-4,5.38c-.07.41-.15.83-.22,1.26-.85,4.91-2,11.64-6,18-4.06,6.57-10.32,11.49-18.65,14.68,0,.15-.92,6.85-.92,6.85L657.62,429A29.76,29.76,0,0,1,639.6,435.33ZM290.16,81.09c.94,0,1.9,0,2.85.11a28.53,28.53,0,0,1,3.62.49L302.86,83l-1,3.82c2.46-.1,3.63-1.07,4-1.56-.22-.59-.74-1.61-1.1-2.32a35.13,35.13,0,0,1-1.91-4.25,12.32,12.32,0,0,1-.5-6.89,35.82,35.82,0,0,1-3.43-1.27A11,11,0,0,0,295,69.34c-.45,0-1.81,0-4.46,1.88A5.26,5.26,0,0,0,288,76.05a9.52,9.52,0,0,0,2,5Z" fill="#390176"/>
                <g>
                  <path d="M623.68,65A14.73,14.73,0,0,1,625.9,80C613.25,110,566.64,152.8,504.2,188.84c-59,34.06-116.17,52.85-149.5,51.44a159.71,159.71,0,0,1-10-24.77A161.53,161.53,0,0,1,619.76,60.37C621.1,61.87,622.4,63.4,623.68,65Z" fill="url(#未命名的渐变_643)"/>
                  <path d="M660.4,167.5A161.51,161.51,0,0,1,367,260.69q-1.67-2.35-3.26-4.78c15.38,1.75,37-1.6,62.1-9.44,27.76-8.66,59.8-22.82,92.38-41.63C583.72,167,631.81,121.71,641.54,91.69c1.39,2.6,2.7,5.25,4,7.93A160.89,160.89,0,0,1,660.4,167.5Z" fill="url(#未命名的渐变_636)"/>
                  <path d="M372.28,258.36a78.2,78.2,0,0,1-8.78-.46c-11.77-1.35-19.75-5.51-23.74-12.39l-3.89-6.8,6.53,3.86c4.25,2.54,10.07,4.09,17.29,4.6,1.77.13,3.65.19,5.58.19,34.63,0,90.16-19.64,144.93-51.25,65.64-37.89,116.35-85.3,123.34-115.28.05-.22.09-.41.12-.61a30.21,30.21,0,0,0-.48-10.16,7.4,7.4,0,0,0-3.64-5.12l-.56-.3-.29-.6-2.13-4.22L631,61.08c7.43,2.12,9.85,6.34,11.44,9.14l.25.42c3.32,5.75,3.59,13,.81,21.66-10.15,31.3-60.07,77.22-124.25,114.27C463.87,238.52,407.58,258.36,372.28,258.36Z" fill="#390176"/>
                  <path d="M641.54,91.69c-9.73,30-57.82,75.32-123.34,113.15-62,35.82-122.08,54.76-154.48,51.07-10.78-1.23-18.5-5-22.23-11.4l-.12-.22c4.59,2.74,10.73,4.35,18.17,4.88,33,2.34,91.37-16.53,151.66-51.33,68.06-39.29,117.31-86.63,124.28-116.56q.09-.36.15-.75c.6-3.38.1-7.61-.49-10.83a9.38,9.38,0,0,0-4.64-6.51l-.1-.19c7,2,8.91,5.89,10.5,8.64C644,77,644.08,83.82,641.54,91.69Z" fill="#455399"/>
                  <path d="M365.27,251.36c-2,0-4-.06-5.87-.19-7.84-.56-14.25-2.3-19-5.16l-.46-.28-.26-.46a20.25,20.25,0,0,1-2.39-7.46c-.82-6.54,1.08-14.35,5.65-23.22l2.23-4.34,1.45,4.67a158.74,158.74,0,0,0,9.39,23.4q1.16,0,2.34,0c34.63,0,90.16-19.63,144.9-51.24,59.46-34.33,106.69-76.2,120.35-106.69a14.48,14.48,0,0,0-2.15-15.09c-1-1.22-2.08-2.44-3.13-3.64l-3.55-4,5.31.7a46.39,46.39,0,0,1,9.77,2.29l.46.13.09.08a10.78,10.78,0,0,1,1.13.56,11.42,11.42,0,0,1,5.63,7.89,33.58,33.58,0,0,1,.49,11.54c0,.28-.1.59-.17.88-7.33,31.45-57.65,78.8-125.23,117.81C456.86,231.52,400.56,251.36,365.27,251.36Z" fill="#390176"/>
                  <path d="M635.63,80.53q-.06.39-.15.75c-7,29.93-56.22,77.27-124.28,116.56-60.29,34.8-118.67,53.67-151.66,51.33-7.44-.53-13.58-2.14-18.17-4.88a18.23,18.23,0,0,1-2.15-6.72c-.78-6.25,1.15-13.73,5.44-22.06a159.71,159.71,0,0,0,10,24.77c33.33,1.41,90.51-17.38,149.5-51.44C565.79,153.28,612,111.11,625.37,81.24a16.4,16.4,0,0,0-2.44-17.19q-1.56-1.86-3.17-3.68a44.83,44.83,0,0,1,9.41,2.21l.05,0a8.71,8.71,0,0,1,1.28.59,9.38,9.38,0,0,1,4.64,6.51C635.73,72.92,636.23,77.15,635.63,80.53Z" fill="#fff"/>
                  <path d="M487.48,310.88C451.05,308.25,418.9,288,418.9,288c2-3.51,0-12.49,0-12.49s6-2,11.32-9.8a22.27,22.27,0,0,0,3.95-15.29h0q8-2.59,16.41-5.76A39.2,39.2,0,0,0,502,221.47q10.53-5.47,21.2-11.63c63.42-36.62,110.51-80.24,122.29-110.22-1.25-2.68-2.56-5.33-4-7.93-9.73,30-57.82,75.32-123.34,113.15q-7.11,4.11-14.17,7.9a39.19,39.19,0,1,0-61,27.86c-6.06,2.24-12,4.25-17.69,6l-.19.06q-2.6.8-5.14,1.54l-1,.29-4.3,1.2-1.09.29c-1.49.39-2.95.77-4.41,1.13l-.7.17q-5.1,1.24-9.93,2.18l-.93.18-3.68.66-1.3.21c-1.1.18-2.19.34-3.26.5l-1.28.18-3.52.42-.77.09c-1.41.14-2.78.26-4.13.36l-.89.05c-1,.06-2,.12-3,.15l-1.32,0-2.47,0h-1.34c-.82,0-1.62,0-2.42-.09l-1.13-.05c-1.14-.08-2.26-.17-3.34-.29q1.59,2.43,3.26,4.78a161.42,161.42,0,0,0,250.07,16.9C580.21,300.66,523.89,313.5,487.48,310.88Z" fill="#b2a8c1" opacity="0.6" style="mix-blend-mode: multiply"/>
                  <g>
                    <circle cx="467.71" cy="204.76" r="39.19" fill="#390176"/>
                    <circle cx="467.71" cy="204.76" r="33.53" fill="#fff"/>
                    <path d="M471.63,231.76a33.53,33.53,0,0,1-30.53-47.39,33.53,33.53,0,1,0,57.14,34.25A33.47,33.47,0,0,1,471.63,231.76Z" fill="#b2a8c1" opacity="0.6" style="mix-blend-mode: multiply"/>
                  </g>
                  <g>
                    <path d="M407,271.1c-1.5-15.44-7.29-33.78-16.3-51.63-8.89-17.61-20.06-33-31.45-43.42l-2.12-1.93,11.13-5.8a11.94,11.94,0,0,1,5.48-1.27c12.36,0,29.36,16.56,41.33,40.27,14.12,28,15.69,54.7,3.59,60.81l-11.37,5.92Z" fill="#390176"/>
                    <path d="M417.76,266.34,409,270.91c-1.47-15.09-7.06-33.62-16.51-52.34a181.94,181.94,0,0,0-14.25-23.7,128,128,0,0,0-17.64-20.3l8.59-4.48c5.68-2.87,13.73.36,22,7.84,7.69,6.92,15.61,17.51,22.06,30.29l0,0v0C426.7,234.83,428.69,260.82,417.76,266.34Z" fill="#8fffff"/>
                    <path d="M378.24,194.87a128,128,0,0,0-17.64-20.3l8.59-4.48c5.68-2.87,13.73.36,22,7.84,0,0-10.33-6.43-14.33-6.43-7,0-12.17,3.43-10,6S374.9,186.5,378.24,194.87Z" fill="#b2a8c1" opacity="0.6" style="mix-blend-mode: multiply"/>
                    <path d="M417.76,266.34,409,270.91c-1.47-15.09-7.06-33.62-16.51-52.34,0,0,8.55,9.84,12.48,18.89s15.93,2,14.93-7c-.78-7-6.14-21.15-6.59-22.23C426.7,234.83,428.69,260.82,417.76,266.34Z" fill="#b2a8c1" opacity="0.6" style="mix-blend-mode: multiply"/>
                  </g>
                  <path d="M311.9,171l-15,7.74c-6.32,3.19-9.69,11-10.24,21.78C240.91,180,254.4,136,254.4,136l29.34,5.15C278.09,176.3,311.9,171,311.9,171Z" fill="#390176"/>
                  <path d="M303.48,173.08l-7.5,3.86c-6.21,3.14-10,10.21-11.09,20.52-16.76-8.25-26.7-20.77-29.55-37.24a58.1,58.1,0,0,1,.54-21.93l25.6,4.49a35.85,35.85,0,0,0,.74,14.38,21.25,21.25,0,0,0,4.19,8,21.68,21.68,0,0,0,9.58,6.32A32.2,32.2,0,0,0,303.48,173.08Z" fill="#fff"/>
                  <path d="M303.48,173.08l-7.5,3.86c-6.21,3.14-10,10.21-11.09,20.52-16.76-8.25-26.7-20.77-29.55-37.24a58.1,58.1,0,0,1,.54-21.93l25.6,4.49a35.85,35.85,0,0,0,.74,14.38s-15.62,1.45-13,9.89,19.82,15.38,26.73,4.42h0A32.2,32.2,0,0,0,303.48,173.08Z" fill="#b2a8c1"/>
                  <path d="M254.76,154.11c-16.82,0-20.95-2.24-22.15-5.84-1.63-4.89-.3-11.26.87-15.2a38.51,38.51,0,0,1-15.65-16.28c-5.13-10.25-2.69-21.49-1.1-26.59-12.83-11.85-18-25.6-15.26-40.9,2.14-12.14,12.38-21.21,20.11-21.21A7.3,7.3,0,0,1,227.71,31c1.77,2.45,1.93,5.89.49,10.23a16.39,16.39,0,0,0,.46,11.36c-.5-7.82.55-16.77,7.69-25.21,7.47-8.83,17.66-14.09,27.27-14.09A20,20,0,0,1,277,18c3,2.64,4.37,5.53,4,8.61-.49,4.44-4.3,8.3-12.75,12.91-2.22,1.21-4,4.19-5.24,8.6,5.59-6.2,12.12-8.39,17.48-10.19,1.77-.59,3.43-1.14,4.91-1.79a21.15,21.15,0,0,1,8.45-1.63c10.33,0,23.34,6.41,27.24,17.13,2,5.39,2,9.35.26,12.47a9.34,9.34,0,0,1-1,1.45c4.1,1.52,8.44,4.79,13,9.76s5.51,12.53,3.18,22.21c-2.7,11.21-10.63,25.56-17.7,28.23-2.6,1-5.4,1.74-8.12,2.47-3.06.82-9.43,2.53-10,3.91-.11.6.8,2.6,1.29,3.67,1.21,2.67,2.73,6,1.39,9.33a8.4,8.4,0,0,1-5,4.58c-5.45,2.18-27.46,4.4-43.63,4.4ZM295,67.34a10,10,0,0,0-5.61,2.24A7.27,7.27,0,0,0,286,77c.72,4.64,5,9.21,10.09,10.85a17.38,17.38,0,0,0,5.29.92,7.76,7.76,0,0,0,5.77-2.07,2.35,2.35,0,0,0,.74-1.41A14.59,14.59,0,0,0,306.52,82c-1.47-2.91-3.8-7.49-1.56-11.68a22.34,22.34,0,0,1-5.29-1.67A12.56,12.56,0,0,0,295,67.34Z" fill="#390176"/>
                  <path d="M317.43,122c-8,3-19,4-20.53,9s7.5,12,0,15-58.5,7-60.5,1,2-16,2-16a34,34,0,0,1-17-16c-6-12,0-26,0-26-10.81-9.25-19-22-16-39,2.3-13,15.22-20.8,18.83-16.9,1.09,1.18,1.33,3.42.17,6.9-5,15,10,27,10,27-.61-9.63-6-24,5-37s27-16,35-9c5.27,4.61,3,9-8,15s-9,33-9,33c6-25,20-25,29.66-29.2S313.4,42,317.4,53c1.9,5.22,1.55,8.18-.1,10h0c-1.82,2-5.24,2.61-8.94,3.31-7,1.32-10.94-7.32-21.28,0a11.25,11.25,0,0,0-5.11,10c.22,4.6,3.07,9.33,7.36,12.48a19.34,19.34,0,0,0,5.59,2.87,21.26,21.26,0,0,0,6.52,1.11h0c7.21,0,10.86-4.68,10.47-8-.29-2.4-2.43-5.33-3.4-8.14L315.25,75l2.05-5.73V68.8c3.56.77,7.93,3.52,13.1,9.2C340.4,89,325.4,119,317.43,122Z" fill="#fff"/>
                  <path d="M317.3,68.8v.42L315.25,75,308.5,76.7c-.7-2-.78-4,.9-5.7A8.16,8.16,0,0,1,317.3,68.8Z" fill="#fff"/>
                  <path d="M317.28,63c-1.82,2-5.24,2.61-8.94,3.31-7,1.32-10.94-7.32-21.28,0a11.25,11.25,0,0,0-5.11,10c-.94-5.15-.05-12.84,7.14-16S299.9,58.5,306.9,61.5C313.61,64.38,317,63.12,317.28,63Z" fill="#b2a8c1"/>
                  <path d="M274.4,21s-12.46-2.06-18,1.18c-10.31,6-17.56,12.54-20.62,31.2-.33,2-.6,4.09-.83,6.36s-.41,4.68-.55,7.26c-.61-9.63-6-24,5-37S266.4,14,274.4,21Z" fill="#b2a8c1"/>
                  <path d="M301.42,92.8c-.32.19-4.6,2.68-14.85,3.67-10.67,1-15,4.58-17.32,9.81s-7.82,5.31-6.58,3.27l4-9.8,9.12-8.06,8.37-4.06,5.11,1.19a19.34,19.34,0,0,0,5.59,2.87A21.26,21.26,0,0,0,301.42,92.8Z" fill="#b2a8c1"/>
                  <path d="M247.9,142.5c-3-5,5.77-11.15,5.77-11.15-21.24-5.16-25.77-27.85-26.77-35.85v-.06c-.4-3.2,2.41-9,5-10.94,8.94-6.61,20.65-9.17,20.65-9.17-9.17.49-18.38,4.59-24.31,7.81a16.62,16.62,0,0,1,.66-1.64c-12,0-19-20-19-31s14.33-17.4,14.33-17.4C220.62,29.2,207.7,37,205.4,50c-3,17,5.19,29.75,16,39,0,0-6,14,0,26a34,34,0,0,0,17,16s-4,10-2,16,53,2,60.5-1C284.9,147.5,250.9,147.5,247.9,142.5Z" fill="#b2a8c1"/>
                  <path d="M419.1,159.41c-15.63,0-32.09-10.23-36.37-19.38-1.6-3.41-1.4-6.58.55-8.93a8.71,8.71,0,0,1,7.06-3.5,28.24,28.24,0,0,1,7.77,1.66,58.75,58.75,0,0,0,18.42,3.13h1c3.27-.06,6.4-.21,9.42-.35s6.12-.29,8.71-.29c5,0,9.8.45,11.48,3.74,1.38,2.68.28,6.24-3.54,11.56A29,29,0,0,1,419.1,159.41Z" fill="#b2a8c1" opacity="0.6" style="mix-blend-mode: multiply"/>
                  <g>
                    <path d="M367.14,317.93l.21-.11c14.52-7.67,11-45.38-7.64-82.35A185.09,185.09,0,0,0,348.5,216.2l-.1-.15c-15-22.38-32.58-36.85-44.82-36.85a12.59,12.59,0,0,0-5.77,1.31L296,176.94l31-16a16.77,16.77,0,0,1,7.59-1.74c7.94,0,17.4,4.81,27.37,13.89,9.57,8.73,18.92,20.76,27.05,34.81l.15.16.08.25c1.72,3,3.42,6.13,5,9.36,9.23,18.28,15.16,37.12,16.71,53.05,1.75,17.95-2.18,30.3-11,34.78l-31,16Z" fill="#390176"/>
                    <path d="M399.05,303.71l-31,16c16-8.09,13.09-46.21-6.56-85.14A187,187,0,0,0,350.07,215h0a152.86,152.86,0,0,0-11-14.56l0,0c-15.42-17.91-31.56-26.94-42.12-21.62l31-16c7.18-3.62,16.94-.61,27.29,7.32l0,0c1.78,1.36,3.58,2.87,5.38,4.51,9.18,8.37,18.55,20.27,26.78,34.54l0,0c1.75,3,3.45,6.18,5.09,9.42,9.45,18.72,15,37.25,16.51,52.34C410.58,287.21,407.37,299.51,399.05,303.71Z" fill="#8fffff"/>
                    <path d="M355.19,170c-.66-.37-13.29-7.54-19.29-5.54-4.09,1.37-15.53,7.14-18.76,9.07s4.79,6.84,8.76,9.93A46.9,46.9,0,0,1,339,200.34c-15.42-17.91-31.56-26.94-42.12-21.62l31-16C335.08,159.1,344.84,162.11,355.19,170Z" fill="#b2a8c1" opacity="0.6" style="mix-blend-mode: multiply"/>
                    <path d="M399.05,303.71l-31,16c16-8.09,13.09-46.21-6.56-85.14A187,187,0,0,0,350.07,215c.49.6,12.83,13.55,21,30.64,5.16,10.75,28.8,3.91,27.15-7.24-.42-2.89-5.34-17.55-10.85-29.2,1.75,3,3.45,6.18,5.09,9.42,9.45,18.72,15,37.25,16.51,52.34C410.58,287.21,407.37,299.51,399.05,303.71Z" fill="#b2a8c1" opacity="0.6" style="mix-blend-mode: multiply"/>
                  </g>
                  <path d="M419.1,156.41c-15.63,0-32.09-10.23-36.37-19.38-1.6-3.41-1.4-6.58.55-8.93a8.71,8.71,0,0,1,7.06-3.5,28.24,28.24,0,0,1,7.77,1.66,58.75,58.75,0,0,0,18.42,3.13h1c3.27-.06,6.4-.21,9.42-.35s6.12-.29,8.71-.29c5,0,9.8.45,11.48,3.74,1.38,2.68.28,6.24-3.54,11.56A29,29,0,0,1,419.1,156.41Z" fill="#390176"/>
                  <path d="M441.93,142.87c-20.23,28.11-66.18-2.62-57.11-13.49a6.84,6.84,0,0,1,4.26-2.67h0c5.49-.94,13,4.94,28.44,4.68,10.46-.18,19.84-1.33,24.68,0C446.49,132.48,447.21,135.53,441.93,142.87Z" fill="#7c9bd1"/>
                  <path d="M441.93,142.87c-20.23,28.11-66.18-2.62-57.11-13.49a6.84,6.84,0,0,1,4.26-2.67c-.09.26-.87,10.25,7.82,13.79,27,11,46.61-1.32,45.3-9.16C446.49,132.48,447.21,135.53,441.93,142.87Z" fill="#b2a8c1" opacity="0.6" style="mix-blend-mode: multiply"/>
                  <path d="M361.38,323.23c-17.77,0-42.32-24.05-59.7-58.47-9.61-19.06-15.6-38.55-16.86-54.88-1.31-16.94,2.67-28.64,11.19-32.94a16.66,16.66,0,0,1,7.57-1.74c17.78,0,42.33,24.05,59.7,58.47,9.62,19.06,15.61,38.55,16.87,54.88,1.3,16.94-2.67,28.64-11.19,32.94A16.67,16.67,0,0,1,361.38,323.23Z" fill="#390176"/>
                  <path d="M368.05,319.71c-15.77,8-44-16.14-63.65-54-.32-.61-.63-1.22-.94-1.84-19.64-38.93-22.58-77.05-6.56-85.14,14-7.08,38,11.22,56.88,42,2.68,4.37,5.27,9,7.71,13.83C381.14,273.5,384.08,311.62,368.05,319.71Z" fill="#50ccc9"/>
                  <path d="M353.78,220.74l-49.38,45c-.32-.61-.63-1.22-.94-1.84-19.64-38.93-22.58-77.05-6.56-85.14C310.94,171.64,334.86,189.94,353.78,220.74Z" fill="#b2a8c1" opacity="0.6" style="mix-blend-mode: multiply"/>
                  <path d="M364.22,312.11a11.51,11.51,0,0,1-5.22,1.18c-11,0-25.81-12.11-38.9-30.69-.4-.56-.79-1.13-1.18-1.71a168.07,168.07,0,0,1-11.28-19.14c-17.2-34.09-20.37-68.64-6.9-75.43a11.51,11.51,0,0,1,5.22-1.18c10.13,0,23.55,10.32,35.85,26.52a164.25,164.25,0,0,1,15.51,25c8.6,17,13.95,34.42,15.07,48.92C373.45,299.3,370.47,309,364.22,312.11Z" fill="#4a6899"/>
                  <path d="M318.92,280.89a168.07,168.07,0,0,1-11.28-19.14c-17.2-34.09-20.37-68.64-6.9-75.43a11.51,11.51,0,0,1,5.22-1.18c10.13,0,23.55,10.32,35.85,26.52l.08,4-26,32.06s-6-15.2-12-12.2S306.91,263,318.92,280.89Z" fill="#b2a8c1" opacity="0.6" style="mix-blend-mode: multiply"/>
                  <path d="M374.53,287.83c-1.28,4.52-3.62,7.73-6.92,9.4a11.91,11.91,0,0,1-5.4,1.24c-12.44,0-29.65-16.9-41.86-41.1-6.72-13.32-10.94-26.92-11.88-38.32-1-12,1.8-20.32,7.88-23.39a11.87,11.87,0,0,1,5.4-1.23,21.64,21.64,0,0,1,10.5,3.26c2.43,2.39,4.87,5,7.28,7.93a158.65,158.65,0,0,1,19.57,30.16c7.75,15.36,12.67,30.57,14.58,43.52A81.21,81.21,0,0,1,374.53,287.83Z" fill="#390176"/>
                  <path d="M373.68,279.3c-.15,8-2.44,13.86-7,16.15-11,5.53-30.92-11.92-44.58-39s-15.84-53.49-4.88-59c5.71-2.88,13.85.47,22.28,8.17a158.65,158.65,0,0,1,19.57,30.16C366.85,251.14,371.77,266.35,373.68,279.3Z" fill="url(#未命名的渐变_170)"/>
                  <path d="M324.13,257.47c-13.66-27.07-15.84-53.49-4.88-59,3.18-1.6,7.11-1.27,11.42.66-5.09-2.78-9.75-3.51-13.42-1.66-11,5.53-8.78,32,4.88,59,9.69,19.18,22.53,33.52,33.09,38.28C345.07,289.18,333.21,275.45,324.13,257.47Z" fill="#b2a8c1" opacity="0.6" style="mix-blend-mode: multiply"/>
                  <ellipse cx="341.98" cy="246.45" rx="18.26" ry="45.09" transform="translate(-74.36 180.51) rotate(-26.78)" fill="url(#未命名的渐变_6)"/>
                  <g opacity="0.4">
                    <ellipse cx="341.98" cy="246.45" rx="10.66" ry="26.31" transform="translate(-74.36 180.51) rotate(-26.78)" fill="url(#未命名的渐变_14)"/>
                  </g>
                  <path d="M577.45,308.63h0a160.43,160.43,0,0,1-56.84,18.91s36.3-22.05,7.3-87.05c0,0,6.16-1.75,22-12,17-11,22-15,22-15a118.67,118.67,0,0,1,10.6,23.18C589,255.78,593.32,283.69,577.45,308.63Z" fill="#390176"/>
                  <g opacity="0.8" style="mix-blend-mode: screen">
                    <ellipse cx="337.35" cy="221.31" rx="5.87" ry="16.49" transform="translate(-39.35 76.8) rotate(-12.28)" fill="url(#未命名的渐变_18)"/>
                  </g>
                  <g opacity="0.6" style="mix-blend-mode: screen">
                    <ellipse cx="346.2" cy="280.27" rx="2.76" ry="7.76" transform="translate(-51.68 80.04) rotate(-12.28)" fill="url(#未命名的渐变_18-2)"/>
                  </g>
                  <path d="M374.39,285.45c-1.14-14.75-6.57-32.39-15.28-49.67-15.64-31-37.5-52.64-53.14-52.64a13.51,13.51,0,0,0-6.13,1.39c-7.29,3.69-10.54,14.14-9.14,29.45,1.35,14.68,6.73,32,15.16,48.67,15.64,31,37.49,52.64,53.14,52.64a13.57,13.57,0,0,0,6.13-1.39C372.13,310.36,375.51,300,374.39,285.45Zm-10.17,26.66a11.48,11.48,0,0,1-5.22,1.18c-14.69,0-36.28-21.68-51.35-51.54-17.21-34.09-20.37-68.64-6.91-75.43a11.53,11.53,0,0,1,5.23-1.18c14.68,0,36.28,21.68,51.35,51.54,8.6,17,14,34.42,15.08,48.92C373.45,299.3,370.47,309,364.22,312.11Z" fill="#390176"/>
                  <path d="M556.9,254.5s12.53,41.05-6.24,66a160.42,160.42,0,0,1-30.06,7s36.3-22.05,7.3-87.05c0,0,6.16-1.75,22-12,17-11,22-15,22-15a118.67,118.67,0,0,1,10.6,23.18S565.9,250.5,556.9,254.5Z" fill="#b2a8c1" opacity="0.6" style="mix-blend-mode: multiply"/>
                  <path d="M589.66,360.87c-1.43-.76-35.11-18.95-42.22-54.48-1.9-9.52-3.84-27,4.55-37.28,3.13-3.81,7.32-6,11.51-6a10.84,10.84,0,0,1,4.8,1.09c5.42,2.71,8,9.58,10.71,16.85,1.85,4.95,3.77,10.06,6.68,14.52,7.6,11.65,27,34.67,51.55,47l6.61,3.33-7.38.45c-.29,0-29.14,1.93-44.63,14.28l-1,.82Z" fill="#390176"/>
                  <path d="M636.34,344.39s-29.57,1.81-45.75,14.71c0,0-34.19-18.1-41.19-53.1s10-44,18-40c5.08,2.54,7.43,9.66,10.35,17.41A68.77,68.77,0,0,0,584,296.67,159.68,159.68,0,0,0,613.37,329,121.4,121.4,0,0,0,636.34,344.39Z" fill="#fff"/>
                  <path d="M636.34,344.39s-29.57,1.81-45.75,14.71c0,0-34.19-18.1-41.19-53.1s10-44,18-40c5.08,2.54,7.43,9.66,10.35,17.41,0,0-8.85-12.91-14,0-1.63,4.07-.68,16.4,5.19,30.09,4.79,11.16,18.88,20.59,30,22,15.15,1.92,14.47-6.5,14.47-6.5A121.4,121.4,0,0,0,636.34,344.39Z" fill="#b2a8c1"/>
                  <path d="M639.6,433.33c-7.18,0-14.35-3-21.33-8.9a47.19,47.19,0,0,1-10.86,1.24,48.25,48.25,0,0,1-33.76-13.77c-14.08-13.38-12.34-23-10.94-26.51,1.94-4.85,6.69-7.87,12.39-7.87a18.91,18.91,0,0,1,8,1.85c2.85,1.31,5.27,2.26,7.28,2.95-4.72-7.33-10.13-18-8-25.92.76-2.84,2.81-6.64,8.28-8.68,13.62-5.08,28.18-7.59,34.44-8.52,1.11-9.25,4.31-37.08,4.31-49.2,0-8.17,5.44-13.66,13.52-13.66s17.82,5.54,21.29,16.13c2.72,8.31,7.68,27.19,3.52,44.21a71.15,71.15,0,0,0,27-30.36c4-8.56,8.32-12.72,13.29-12.72,2.33,0,5.73,1,8.73,5.63,4.71,7.3,7.1,22.61,3.13,31.42A111.32,111.32,0,0,1,706,353.56c8.85-3.23,18.92-7.63,24.8-12.61,2.53-2.14,5-3.23,7.38-3.23,3.19,0,6.93,2.1,7.85,8,1.46,9.43-4.82,25.13-20.43,30.09a148.17,148.17,0,0,1-22.77,5.11c-7.92,1.28-11.77,2-12.7,4.48a33.13,33.13,0,0,0-1.16,5.34c-1.7,9.89-4.52,26.33-28.37,32.82-2.55,2.78-10,9.77-21,9.77Z" fill="#390176"/>
                  <path d="M742.23,347.9c.27,7.61-5.09,20.05-17.83,24.1-20,6.35-32.51,4.47-36.9,10a7.05,7.05,0,0,0-1.1,2c-3,7.95,0,28.75-27.5,35.87l-.5.13s-16.23,21-39.11,0c0,0-22.89,8-42.89-11-13.08-12.43-12.47-22.29-6.84-25.94a9.3,9.3,0,0,1,3.54-1.36,14.06,14.06,0,0,1,8.3,1.3c13,6,18,5,18,5s-24.71-30.06-7.36-36.53a157.34,157.34,0,0,1,21.61-6.13c8.69-1.85,15-2.59,15-2.59s1.08-8.62,2.2-19.25c1.23-11.62,2.52-25.67,2.52-33.5,0-10.78,11.37-12,19.62-6.22a19.58,19.58,0,0,1,7.38,9.93c5,15.29,8,36.14,0,51.21.11,0,1.06-.39,2.62-1.11A74.71,74.71,0,0,0,698.4,308c7.82-16.84,14.82-10.53,17.89,0h0c2,7,2.33,15.81,0,21-5.36,11.84-14.13,25.34-24,32.19a32,32,0,0,1-2.89,1.8c.94-.24,31.18-8.16,44-19,5.46-4.62,8.63-1.65,8.82,3.87Z" fill="#fff"/>
                  <path d="M686.58,381.05l-9.68-5.55-15.43-4.12-9,.3s12,1.51,21.72,6.07a12.13,12.13,0,0,1,5.14,17.47c-3.58,5.7-8.71,10.63-11.46,12.28-5,3-9-3.18-9-3.18l.16,10.36L658.4,420l.5-.13c27.46-7.12,24.52-27.92,27.5-35.87a7.05,7.05,0,0,1,1.1-2Z" fill="#b2a8c1"/>
                  <path d="M658.9,409.5v10.37l-.5.13s-16.23,21-39.11,0c0,0-22.89,8-42.89-11-13.08-12.43-12.47-22.29-6.84-25.94a9.3,9.3,0,0,1,3.54-1.36h0s-5.21,3.8-3.21,8.8,10.92,17.82,24.46,19.41,18.68,1.41,25.61,0c0,0,7.93,9.59,16.93,9.59s21.85.31,20.92-17.34Z" fill="#b2a8c1"/>
                  <path d="M742.22,347.87c-.12-.36-1.46-4.23-4.32-1.37s-24,22-64.5,21.5l10.73-3.5,8.18-3.31a32,32,0,0,1-2.89,1.8c.94-.24,31.18-8.16,44-19C738.86,339.38,742,342.35,742.22,347.87Z" fill="#b2a8c1"/>
                  <path d="M716.29,308c-.22-.27-3.55-4.4-8.39-1.5-5,3-7,21-20,30s-26,17-39,22c.57-.31,8-4.4,14.09-14.67A74.71,74.71,0,0,0,698.4,308C706.22,291.16,713.22,297.47,716.29,308Z" fill="#b2a8c1"/>
                  <path d="M633.4,290c0,7.83-1.29,21.88-2.52,33.5-1.12,10.63-2.2,19.25-2.2,19.25s-1.5.18-4,.57h0c-.79.12-1.69.26-2.68.43l-.12,0-1.45.26-.13,0c-2,.35-4.16.77-6.56,1.28h0A155.93,155.93,0,0,0,592,351.47C574.69,357.94,599.4,388,599.4,388l12-4.58s-7.51-24.92.49-26.92,6.85,3.39,6.85,3.39l.51-.27,0,.11s13.42-6.64,18.05-18.26c7.56-19,1.56-45,3.56-52s11.66-5.77,12.12-5.72C644.77,278,633.4,279.22,633.4,290Z" fill="#b2a8c1"/>
                  <path d="M656.45,422.58a58.07,58.07,0,0,0,1.41-8.19,60.62,60.62,0,0,0,.29-8.42,46.5,46.5,0,0,0-1.12-8.38,35.22,35.22,0,0,0-3-8,35,35,0,0,1,4,7.69,47.18,47.18,0,0,1,2.16,8.47,64,64,0,0,1,.72,8.76,59.72,59.72,0,0,1-.5,8.89Z" fill="#390176"/>
                  <path d="M686.9,385.5c-.56-.53-1-3-4-4.45-.8-.51-1.62-1-2.46-1.46s-1.7-.9-2.56-1.33A66.43,66.43,0,0,0,667,374.18c-1.89-.47-3.78-1-5.71-1.31-1-.17-1.92-.41-2.9-.52l-2.92-.38c-1-.16-1.95-.22-2.93-.29l-3-.21c-2-.08-3.95-.07-5.93-.11,2-.13,4-.3,5.93-.39l3,0c1,0,2,0,3,0l3,.14c1,0,2,.18,3,.27,2,.16,4,.53,5.94.85A69.19,69.19,0,0,1,679,375.51c.94.37,1.89.74,2.81,1.17s1.85.86,2.76,1.34,1.81,1,2.69,1.52a25,25,0,0,1,2.67,1.83Z" fill="#390176"/>
                  <path d="M666.75,341.4c-1.21,1.8-2.45,3.43-3.77,5.07s-2.68,3.19-4.14,4.67a43.57,43.57,0,0,1-4.63,4.18,23.74,23.74,0,0,1-5.31,3.18,23,23,0,0,0,4.63-3.92,42.74,42.74,0,0,0,3.77-4.71c1.16-1.64,2.21-3.36,3.21-5.1s1.94-3.55,2.74-5.3Z" fill="#390176"/>
                  <path d="M700.82,359.28c-4.46,1.88-8.93,3.61-13.48,5.19-2.26.79-4.56,1.51-6.88,2.15A36.28,36.28,0,0,1,673.4,368a36.17,36.17,0,0,0,6.73-2.32q3.27-1.43,6.43-3.05c4.22-2.16,8.39-4.49,12.43-6.91Z" fill="#390176"/>
                  <path d="M595.44,383.57a22.19,22.19,0,0,0,2.52.73,26.81,26.81,0,0,0,2.68.47,23.73,23.73,0,0,0,5.46.08,17.5,17.5,0,0,0,5.32-1.43,16,16,0,0,0,4.6-3.25,16.42,16.42,0,0,1-4.11,4.12,18.84,18.84,0,0,1-5.41,2.52,26.75,26.75,0,0,1-6,1,28,28,0,0,1-3,0,23.67,23.67,0,0,1-3.12-.33Z" fill="#390176"/>
                  <path d="M628.68,341.85a28.66,28.66,0,0,1-.73,3.58c-.29,1.15-.65,2.27-1.05,3.38a35.87,35.87,0,0,1-3,6.34,26.59,26.59,0,0,1-4.36,5.42,23.7,23.7,0,0,1-5.6,3.93,22.91,22.91,0,0,0,4.86-4.61,25.11,25.11,0,0,0,3.33-5.67A32.52,32.52,0,0,0,624,348c.21-1.07.39-2.14.5-3.21a26.42,26.42,0,0,0,.18-3.13Z" fill="#390176"/>
                  <path d="M236.4,131c2.13.15,4.34.24,6.52.3s4.38.09,6.57.09q6.58,0,13.18-.39-6.46,1.37-13,2.38c-2.18.34-4.38.64-6.58.92s-4.39.52-6.66.7Z" fill="#390176"/>
                  <path d="M294.39,91.43a20.84,20.84,0,0,0-2.31-.53c-.81-.14-1.63-.25-2.46-.31a27.61,27.61,0,0,0-5,0,23.49,23.49,0,0,0-9.52,2.93,21.33,21.33,0,0,0-4.12,3c-.66.54-1.22,1.19-1.83,1.8s-1.14,1.29-1.63,2a36.59,36.59,0,0,0-4.87,9.24,36.88,36.88,0,0,1,4-9.8c.44-.79,1-1.49,1.5-2.24s1.1-1.43,1.73-2.08a24,24,0,0,1,4.11-3.6,26.17,26.17,0,0,1,10.16-4.2,31,31,0,0,1,5.53-.54c.93,0,1.86,0,2.8.09a22.71,22.71,0,0,1,2.88.39Z" fill="#390176"/>
                  <path d="M217,87.59a42.49,42.49,0,0,1,4.4-3.28c1.51-1,3-1.86,4.62-2.67a58.9,58.9,0,0,1,20-6.22c1.71-.27,3.46-.32,5.19-.43s3.46,0,5.18,0c-1.72.17-3.44.23-5.14.49s-3.4.49-5.06.92a56.2,56.2,0,0,0-9.73,3.09,55,55,0,0,0-8.95,4.73c-1.42.91-2.77,1.9-4.09,2.92a40,40,0,0,0-3.61,3.26Z" fill="#390176"/>
                </g>
              </g>
            </g>
            <g>
              <g style="mix-blend-mode: screen">
                <circle cx="495.9" cy="29.23" r="10.07" fill="url(#未命名的渐变_18-3)"/>
              </g>
              <path d="M578.21,75.2a8.62,8.62,0,0,1-10.68-3.9c-14.77-26.94-47.34-32.52-47.67-32.57a8.63,8.63,0,0,1,2.7-17c1.67.26,41.19,6.81,60.11,41.32a8.64,8.64,0,0,1-3.43,11.72A6.86,6.86,0,0,1,578.21,75.2Z" fill="url(#未命名的渐变_18-4)"/>
            </g>
          </g>
          <path d="M372.39,285.6c-1.12-14.5-6.47-31.87-15.07-48.92a164.25,164.25,0,0,0-15.51-25c-12.3-16.2-25.72-26.52-35.85-26.52a11.51,11.51,0,0,0-5.22,1.18h0L0,351.77,123.73,535.55,364.22,312.11h0C370.47,309,373.45,299.3,372.39,285.6Z" opacity="0.45" fill="url(#未命名的渐变_651)" style="mix-blend-mode: color-dodge"/>
        </g>
      </g>
    </g>
  </g>
</svg>
