<svg width="359" height="473" viewBox="0 0 359 473" fill="none" xmlns="http://www.w3.org/2000/svg">
<path d="M205.5 429.5C204.295 429.5 200.788 429.382 200 428.5C197.961 426.271 198.729 421.874 199.239 414.955C199.517 411.565 199.239 408.175 198.497 404.832L198.451 404.739C195.578 393.362 185.987 387.836 177.508 383.007C170.326 378.874 164.983 375.826 163.5 369C162.249 363.288 163.329 355.377 170.048 346.09L170.465 345.533V345.44L170.696 345.208C172.643 342.329 173.755 339.867 173.986 337.824C174.218 336.385 173.801 334.945 172.828 333.877C170.418 331.137 164.534 329.791 154.248 329.605C153.414 329.605 152.58 329.605 151.699 329.605C145.954 329.605 139.652 329.884 133.026 330.209C126.308 330.534 119.311 330.859 112.871 330.859C100.453 330.859 91.4579 327.193 86.5001 324.5C71.7657 316.42 61.625 303.879 57.1305 285.816C52.4971 267.334 55.2771 248.481 64.7294 234.132C82.4292 207.199 97.6732 201.766 115.28 195.451C118.894 194.15 122.694 192.804 126.586 191.225C132.656 188.81 138.54 185.885 144.147 182.495C149.661 179.244 154.433 174.786 158.047 169.493C161.383 164.617 163.422 159.462 165.414 154.494C170.557 141.538 175.469 129.279 201.926 125.425C206.142 124.821 209.988 124.217 213.417 123.66C221.433 122.406 227.225 121.478 231.163 121.478C233.711 121.478 237.14 121.803 237.696 124.775C239.318 132.947 215.502 149.897 193.122 160.02C182.558 164.803 179.454 171.536 174.357 182.681C170.743 190.575 166.248 200.419 157.445 212.818C154.896 216.393 152.116 220.015 149.383 223.544C138.262 237.986 127.744 251.638 131.405 264.455C134.231 274.346 145.351 282.797 165.507 290.366C187.053 298.446 188.628 308.43 188.35 317.949C188.304 319.76 188.165 321.618 188.026 323.522C187.47 331.462 186.867 339.682 191.825 348.783C194.605 353.938 198.868 358.767 204.845 363.596C217.772 374.045 220.784 386.954 221.062 395.962C221.386 407.618 217.355 417.88 213.463 423.638L213.417 423.731C210.359 427.818 208.141 429.5 205.5 429.5Z" fill="url(#paint0_linear_189_451)"/>
<path d="M185.894 134.434C186.775 133.876 187.84 133.923 188.257 134.573C188.674 135.223 188.257 136.198 187.331 136.755C186.45 137.313 185.385 137.266 184.968 136.616C184.551 135.966 184.968 134.991 185.894 134.434Z" fill="url(#paint1_linear_189_451)"/>
<path d="M203.501 131.09C203.038 131.694 202.297 132.019 201.555 131.926C196.829 130.905 191.408 134.109 191.362 134.155C190.574 134.62 189.694 134.527 189.369 133.97C189.045 133.412 189.416 132.576 190.203 132.112C190.481 131.973 197.061 128.026 203.084 129.326C203.826 129.465 204.057 130.208 203.64 130.905C203.594 130.998 203.548 131.044 203.501 131.09Z" fill="url(#paint2_linear_189_451)"/>
<path d="M163.422 296.775C163.654 295.985 164.766 295.614 165.878 295.939C166.99 296.264 167.731 297.193 167.499 297.982C167.268 298.771 166.156 299.143 165.044 298.818C163.932 298.493 163.19 297.564 163.422 296.775Z" fill="url(#paint3_linear_189_451)"/>
<path d="M181.585 307.966C180.751 308.059 179.917 307.641 179.454 306.945C176.813 302.301 170.187 300.211 170.14 300.211C169.214 299.933 168.611 299.143 168.797 298.447C168.982 297.75 169.955 297.472 170.928 297.75C171.252 297.843 179.268 300.397 182.697 306.295C183.114 306.991 182.697 307.734 181.817 307.92L181.585 307.966Z" fill="url(#paint4_linear_189_451)"/>
<path d="M151.838 192.85C152.348 192.107 153.228 191.782 153.738 192.153C154.248 192.525 154.294 193.454 153.738 194.197C153.228 194.94 152.348 195.265 151.838 194.893C151.329 194.522 151.329 193.593 151.838 192.85Z" fill="url(#paint5_linear_189_451)"/>
<path d="M140.996 202.881C141.135 202.231 141.645 201.72 142.247 201.534C146.324 200.699 149.522 196.334 149.568 196.287C150.031 195.637 150.773 195.405 151.19 195.73C151.607 196.055 151.653 196.844 151.19 197.494C151.004 197.727 147.158 203.067 141.969 204.088C141.32 204.228 140.903 203.763 140.996 203.02C140.95 202.974 140.95 202.927 140.996 202.881Z" fill="url(#paint6_linear_189_451)"/>
<path d="M212.259 404.554C213.232 404.321 214.205 404.925 214.483 405.9C214.714 406.875 214.112 407.851 213.139 408.083C212.166 408.315 211.193 407.711 210.915 406.736C210.683 405.761 211.285 404.786 212.259 404.554Z" fill="url(#paint7_linear_189_451)"/>
<path d="M205.864 422.245C205.494 421.549 205.679 420.713 206.328 420.248C210.822 416.951 211.007 410.961 211.007 410.868C211.054 409.986 211.795 409.336 212.676 409.429C213.463 409.475 214.112 410.125 214.112 410.961C214.112 411.286 213.88 418.53 208.181 422.802C207.486 423.313 206.513 423.174 206.003 422.477C205.957 422.384 205.911 422.338 205.864 422.245Z" fill="url(#paint8_linear_189_451)"/>
<path d="M231.163 110.937C224.723 110.937 220.182 109.079 219.301 106.014C218.745 104.203 219.301 101.232 224.954 97.5631C234.916 91.062 243.581 88.4616 251.18 86.1397C259.427 83.6786 266.516 81.4961 273.605 75.2737C275.876 73.2769 277.961 71.2801 280 69.3762C287.645 62.1322 294.224 55.8633 303.399 55.8633C306.92 55.8633 310.58 56.7456 314.658 58.603C324.064 62.8752 324.666 67.4259 324.156 69.7477C323.091 74.7164 315.585 78.4778 306.781 78.4778C306.41 78.4778 305.993 78.4778 305.623 78.4778C304.325 78.4313 302.982 78.3849 301.731 78.3849C277.59 78.3849 267.628 86.4648 263.597 93.2445C255.767 106.34 241.264 110.937 231.163 110.937Z" fill="url(#paint9_linear_189_451)"/>
<path opacity="0.6" d="M262.763 92.873C247.751 117.995 205.123 111.68 225.464 98.399C225.325 98.5847 220.691 105.039 230.236 105.457C239.967 105.922 252.199 103.971 262.763 92.873Z" fill="#B2A8C1"/>
<path opacity="0.6" d="M305.623 77.5953C296.726 77.2703 285.652 77.9668 276.571 81.7282C276.849 81.496 286.44 74.3448 296.031 74.3448C305.762 74.3448 311.785 75.2735 316.882 72.023C321.979 68.7725 322.118 65.7077 320.403 63.293C328.697 70.5835 317.948 78.0597 305.623 77.5953Z" fill="#B2A8C1"/>
<path d="M302.426 61.1574C303.219 61.1574 303.862 60.7001 303.862 60.1359C303.862 59.5716 303.219 59.1143 302.426 59.1143C301.632 59.1143 300.989 59.5716 300.989 60.1359C300.989 60.7001 301.632 61.1574 302.426 61.1574Z" fill="url(#paint10_linear_189_451)"/>
<path d="M315.121 63.9899C314.565 64.2221 313.963 64.1292 313.5 63.7577C310.858 61.2037 306.086 61.1108 306.04 61.1108C305.345 61.1108 304.789 60.6929 304.835 60.1821C304.835 59.7177 305.391 59.2998 306.086 59.2998C306.318 59.2998 312.11 59.3927 315.492 62.6432C315.816 62.9218 315.816 63.3862 315.538 63.6648C315.446 63.7577 315.353 63.8041 315.214 63.8506L315.121 63.9899Z" fill="url(#paint11_linear_189_451)"/>
<g opacity="0.6">
<path opacity="0.6" d="M228.476 102.671C228.476 102.253 228.985 101.881 229.588 101.928C230.19 101.974 230.653 102.346 230.607 102.764C230.561 103.182 230.097 103.553 229.495 103.507C228.939 103.507 228.476 103.135 228.476 102.671Z" fill="url(#paint12_linear_189_451)"/>
</g>
<path opacity="0.6" d="M239.596 101.417C239.225 101.185 238.762 101.185 238.391 101.417C235.935 102.996 232.46 102.485 232.414 102.485C231.997 102.392 231.534 102.578 231.348 102.996C231.256 103.368 231.58 103.739 232.09 103.786C232.275 103.832 236.491 104.436 239.642 102.439C239.92 102.3 240.013 101.975 239.874 101.696C239.828 101.603 239.781 101.557 239.689 101.51L239.596 101.417Z" fill="url(#paint13_linear_189_451)"/>
<path opacity="0.2" d="M88.36 282.38C91.5331 282.38 94.1055 279.802 94.1055 276.621C94.1055 273.441 91.5331 270.863 88.36 270.863C85.1868 270.863 82.6145 273.441 82.6145 276.621C82.6145 279.802 85.1868 282.38 88.36 282.38Z" fill="white"/>
<path opacity="0.6" d="M86.9699 281.357C84.0045 280.289 82.4755 276.992 83.5412 274.02C83.7265 273.556 83.9582 273.092 84.2362 272.674C82.0585 274.949 82.1512 278.618 84.4679 280.8C86.7383 282.983 90.3987 282.89 92.5764 280.568C92.7618 280.382 92.9471 280.15 93.0861 279.964C91.5107 281.59 89.1013 282.1 86.9699 281.357Z" fill="url(#paint14_linear_189_451)"/>
<path opacity="0.3" d="M88.9624 274.346C89.6021 274.346 90.1207 273.826 90.1207 273.185C90.1207 272.544 89.6021 272.024 88.9624 272.024C88.3226 272.024 87.804 272.544 87.804 273.185C87.804 273.826 88.3226 274.346 88.9624 274.346Z" fill="white"/>
<path opacity="0.2" d="M88.4527 297.518C90.4743 297.518 92.1131 295.875 92.1131 293.849C92.1131 291.823 90.4743 290.181 88.4527 290.181C86.4311 290.181 84.7922 291.823 84.7922 293.849C84.7922 295.875 86.4311 297.518 88.4527 297.518Z" fill="white"/>
<path opacity="0.6" d="M87.5723 296.867C85.6726 296.171 84.6996 294.081 85.3946 292.177C85.4872 291.852 85.6726 291.574 85.8579 291.295C84.4679 292.734 84.4679 295.056 85.9042 296.449C87.3406 297.843 89.6573 297.842 91.0474 296.403C91.1864 296.264 91.3254 296.078 91.4181 295.939C90.445 297.007 88.916 297.378 87.5723 296.867Z" fill="url(#paint15_linear_189_451)"/>
<path opacity="0.3" d="M88.8234 292.41C89.2328 292.41 89.5647 292.077 89.5647 291.667C89.5647 291.256 89.2328 290.924 88.8234 290.924C88.4139 290.924 88.082 291.256 88.082 291.667C88.082 292.077 88.4139 292.41 88.8234 292.41Z" fill="white"/>
<path opacity="0.2" d="M96.8856 240.029C98.9072 240.029 100.546 238.387 100.546 236.361C100.546 234.335 98.9072 232.692 96.8856 232.692C94.864 232.692 93.2252 234.335 93.2252 236.361C93.2252 238.387 94.864 240.029 96.8856 240.029Z" fill="white"/>
<path opacity="0.6" d="M96.0052 239.379C94.1055 238.682 93.1325 236.593 93.7812 234.689C93.8738 234.364 94.0592 234.085 94.2445 233.807C92.8545 235.246 92.8545 237.568 94.2908 238.961C95.7272 240.354 98.0439 240.354 99.434 238.915C99.573 238.775 99.712 238.59 99.8047 238.45C98.878 239.518 97.3489 239.843 96.0052 239.379Z" fill="url(#paint16_linear_189_451)"/>
<path opacity="0.3" d="M97.2562 234.921C97.6657 234.921 97.9976 234.589 97.9976 234.179C97.9976 233.768 97.6657 233.436 97.2562 233.436C96.8468 233.436 96.5149 233.768 96.5149 234.179C96.5149 234.589 96.8468 234.921 97.2562 234.921Z" fill="white"/>
<path opacity="0.2" d="M247.426 101.185C248.655 101.185 249.65 100.187 249.65 98.9565C249.65 97.7255 248.655 96.7275 247.426 96.7275C246.198 96.7275 245.202 97.7255 245.202 98.9565C245.202 100.187 246.198 101.185 247.426 101.185Z" fill="white"/>
<path opacity="0.6" d="M246.917 100.767C245.758 100.349 245.156 99.0487 245.573 97.8878C245.619 97.702 245.712 97.5163 245.851 97.377C245.619 97.6091 245.48 97.8878 245.341 98.1664C244.924 99.3273 245.527 100.628 246.685 101.045C247.658 101.417 248.724 101.045 249.28 100.21C248.677 100.86 247.751 101.092 246.917 100.767Z" fill="url(#paint17_linear_189_451)"/>
<path opacity="0.3" d="M247.658 98.0742C247.914 98.0742 248.121 97.8663 248.121 97.6099C248.121 97.3534 247.914 97.1455 247.658 97.1455C247.402 97.1455 247.195 97.3534 247.195 97.6099C247.195 97.8663 247.402 98.0742 247.658 98.0742Z" fill="white"/>
<path opacity="0.2" d="M250.855 95.1488C251.444 95.1488 251.921 94.6706 251.921 94.0807C251.921 93.4909 251.444 93.0127 250.855 93.0127C250.267 93.0127 249.789 93.4909 249.789 94.0807C249.789 94.6706 250.267 95.1488 250.855 95.1488Z" fill="white"/>
<path opacity="0.6" d="M250.624 94.9622C250.067 94.7764 249.789 94.1263 249.975 93.5691C250.021 93.4762 250.067 93.3834 250.114 93.3369C250.021 93.4298 249.928 93.5691 249.882 93.7084C249.697 94.2656 249.975 94.8693 250.531 95.1015C250.994 95.2872 251.504 95.1015 251.782 94.73C251.458 95.0086 251.041 95.1015 250.624 94.9622Z" fill="url(#paint18_linear_189_451)"/>
<path opacity="0.3" d="M250.994 93.6626C251.122 93.6626 251.226 93.5587 251.226 93.4304C251.226 93.3022 251.122 93.1982 250.994 93.1982C250.866 93.1982 250.762 93.3022 250.762 93.4304C250.762 93.5587 250.866 93.6626 250.994 93.6626Z" fill="white"/>
<path opacity="0.2" d="M311.831 72.3944C313.06 72.3944 314.055 71.3965 314.055 70.1655C314.055 68.9345 313.06 67.9365 311.831 67.9365C310.603 67.9365 309.607 68.9345 309.607 70.1655C309.607 71.3965 310.603 72.3944 311.831 72.3944Z" fill="white"/>
<path opacity="0.6" d="M311.322 71.9768C310.163 71.5588 309.561 70.2586 309.978 69.0977C310.024 68.912 310.117 68.7262 310.256 68.5869C310.024 68.8191 309.885 69.0977 309.746 69.3763C309.329 70.5372 309.932 71.8375 311.09 72.2554C312.063 72.6269 313.129 72.2554 313.685 71.4195C313.083 72.0696 312.156 72.3018 311.322 71.9768Z" fill="url(#paint19_linear_189_451)"/>
<path opacity="0.3" d="M312.063 69.2832C312.319 69.2832 312.526 69.0753 312.526 68.8189C312.526 68.5624 312.319 68.3545 312.063 68.3545C311.807 68.3545 311.6 68.5624 311.6 68.8189C311.6 69.0753 311.807 69.2832 312.063 69.2832Z" fill="white"/>
<path opacity="0.2" d="M307.059 68.4006C307.878 68.4006 308.542 67.7354 308.542 66.9147C308.542 66.094 307.878 65.4287 307.059 65.4287C306.24 65.4287 305.576 66.094 305.576 66.9147C305.576 67.7354 306.24 68.4006 307.059 68.4006Z" fill="white"/>
<path opacity="0.6" d="M306.688 68.1225C305.947 67.8439 305.53 67.008 305.808 66.265C305.854 66.1257 305.901 66.0329 305.993 65.8936C305.854 66.0329 305.762 66.2186 305.669 66.4044C305.391 67.1473 305.762 68.0296 306.549 68.3082C307.198 68.5404 307.893 68.3082 308.264 67.751C307.847 68.1689 307.244 68.3082 306.688 68.1225Z" fill="url(#paint20_linear_189_451)"/>
<path opacity="0.3" d="M307.198 66.3581C307.377 66.3581 307.522 66.2126 307.522 66.0331C307.522 65.8535 307.377 65.708 307.198 65.708C307.019 65.708 306.874 65.8535 306.874 66.0331C306.874 66.2126 307.019 66.3581 307.198 66.3581Z" fill="white"/>
<path opacity="0.2" d="M187.423 158.302C188.779 158.302 189.879 157.2 189.879 155.841C189.879 154.482 188.779 153.38 187.423 153.38C186.067 153.38 184.967 154.482 184.967 155.841C184.967 157.2 186.067 158.302 187.423 158.302Z" fill="white"/>
<path opacity="0.6" d="M186.821 157.884C185.524 157.419 184.875 155.98 185.338 154.726C185.431 154.54 185.524 154.308 185.663 154.169C185.431 154.401 185.246 154.726 185.107 155.051C184.643 156.351 185.338 157.745 186.589 158.209C187.609 158.58 188.767 158.209 189.416 157.327C188.767 157.977 187.748 158.209 186.821 157.884Z" fill="url(#paint21_linear_189_451)"/>
<path opacity="0.3" d="M187.701 154.865C187.983 154.865 188.211 154.637 188.211 154.355C188.211 154.072 187.983 153.844 187.701 153.844C187.42 153.844 187.192 154.072 187.192 154.355C187.192 154.637 187.42 154.865 187.701 154.865Z" fill="white"/>
<path opacity="0.2" d="M201.324 150.871C202.68 150.871 203.779 149.77 203.779 148.41C203.779 147.051 202.68 145.949 201.324 145.949C199.967 145.949 198.868 147.051 198.868 148.41C198.868 149.77 199.967 150.871 201.324 150.871Z" fill="white"/>
<path opacity="0.6" d="M200.721 150.454C199.424 149.99 198.775 148.55 199.238 147.296C199.331 147.111 199.424 146.879 199.563 146.739C199.331 146.971 199.146 147.296 199.007 147.622C198.543 148.922 199.238 150.315 200.49 150.779C201.509 151.151 202.667 150.779 203.316 149.897C202.667 150.547 201.648 150.779 200.721 150.454Z" fill="url(#paint22_linear_189_451)"/>
<path opacity="0.3" d="M201.602 147.436C201.883 147.436 202.111 147.207 202.111 146.925C202.111 146.643 201.883 146.414 201.602 146.414C201.32 146.414 201.092 146.643 201.092 146.925C201.092 147.207 201.32 147.436 201.602 147.436Z" fill="white"/>
<path opacity="0.2" d="M228.198 129.047C229.042 129.047 229.727 128.361 229.727 127.515C229.727 126.669 229.042 125.982 228.198 125.982C227.353 125.982 226.669 126.669 226.669 127.515C226.669 128.361 227.353 129.047 228.198 129.047Z" fill="white"/>
<path opacity="0.6" d="M227.827 128.769C227.039 128.49 226.622 127.608 226.9 126.772C226.947 126.633 226.993 126.54 227.086 126.4C226.947 126.54 226.808 126.725 226.761 126.958C226.483 127.747 226.9 128.629 227.688 128.954C228.337 129.187 229.078 128.954 229.449 128.397C229.032 128.862 228.429 129.001 227.827 128.769Z" fill="url(#paint23_linear_189_451)"/>
<path opacity="0.3" d="M228.383 126.911C228.562 126.911 228.707 126.765 228.707 126.586C228.707 126.406 228.562 126.261 228.383 126.261C228.204 126.261 228.059 126.406 228.059 126.586C228.059 126.765 228.204 126.911 228.383 126.911Z" fill="white"/>
<path opacity="0.2" d="M225.232 135.037C226.205 135.037 226.993 134.247 226.993 133.272C226.993 132.298 226.205 131.508 225.232 131.508C224.26 131.508 223.471 132.298 223.471 133.272C223.471 134.247 224.26 135.037 225.232 135.037Z" fill="white"/>
<path opacity="0.6" d="M224.815 134.712C223.889 134.387 223.425 133.366 223.75 132.483C223.796 132.344 223.889 132.205 223.981 132.065C223.796 132.251 223.703 132.437 223.611 132.669C223.286 133.598 223.75 134.573 224.676 134.898C225.418 135.177 226.205 134.898 226.669 134.248C226.159 134.805 225.464 134.944 224.815 134.712Z" fill="url(#paint24_linear_189_451)"/>
<path opacity="0.3" d="M225.418 132.623C225.622 132.623 225.788 132.457 225.788 132.251C225.788 132.046 225.622 131.88 225.418 131.88C225.213 131.88 225.047 132.046 225.047 132.251C225.047 132.457 225.213 132.623 225.418 132.623Z" fill="white"/>
<path opacity="0.2" d="M92.9934 266.869C94.8103 266.869 96.2832 265.393 96.2832 263.572C96.2832 261.752 94.8103 260.275 92.9934 260.275C91.1765 260.275 89.7037 261.752 89.7037 263.572C89.7037 265.393 91.1765 266.869 92.9934 266.869Z" fill="white"/>
<path opacity="0.6" d="M92.2058 266.313C90.4914 265.709 89.611 263.805 90.2134 262.04C90.3061 261.762 90.4451 261.483 90.6304 261.251C89.3794 262.598 89.472 264.687 90.8157 265.941C92.1594 267.195 94.2445 267.102 95.4955 265.755C95.5882 265.662 95.6809 265.57 95.7272 265.477C94.8005 266.452 93.4105 266.777 92.2058 266.313Z" fill="url(#paint25_linear_189_451)"/>
<path opacity="0.3" d="M93.3178 262.273C93.7016 262.273 94.0128 261.961 94.0128 261.576C94.0128 261.192 93.7016 260.88 93.3178 260.88C92.9339 260.88 92.6227 261.192 92.6227 261.576C92.6227 261.961 92.9339 262.273 93.3178 262.273Z" fill="white"/>
<path opacity="0.2" d="M105.457 300.861C108.247 300.861 110.508 298.595 110.508 295.8C110.508 293.004 108.247 290.738 105.457 290.738C102.668 290.738 100.407 293.004 100.407 295.8C100.407 298.595 102.668 300.861 105.457 300.861Z" fill="white"/>
<path opacity="0.6" d="M104.206 299.933C101.612 299.004 100.222 296.125 101.148 293.478C101.287 293.06 101.519 292.642 101.797 292.271C99.851 294.267 99.8973 297.471 101.89 299.422C103.882 301.372 107.079 301.326 109.025 299.329C109.211 299.143 109.396 298.911 109.535 298.725C108.191 300.118 106.106 300.629 104.206 299.933Z" fill="url(#paint26_linear_189_451)"/>
<path opacity="0.3" d="M105.967 293.756C106.53 293.756 106.986 293.299 106.986 292.735C106.986 292.17 106.53 291.713 105.967 291.713C105.404 291.713 104.948 292.17 104.948 292.735C104.948 293.299 105.404 293.756 105.967 293.756Z" fill="white"/>
<path opacity="0.2" d="M191.64 152.265C193.789 152.265 195.532 150.519 195.532 148.365C195.532 146.21 193.789 144.464 191.64 144.464C189.49 144.464 187.748 146.21 187.748 148.365C187.748 150.519 189.49 152.265 191.64 152.265Z" fill="white"/>
<path opacity="0.6" d="M190.667 151.522C188.674 150.779 187.609 148.55 188.35 146.554C188.489 146.229 188.628 145.904 188.813 145.625C188.443 146.043 188.165 146.507 187.933 147.018C187.192 149.015 188.257 151.244 190.25 151.987C191.871 152.59 193.725 151.987 194.744 150.594C193.725 151.708 192.103 152.08 190.667 151.522Z" fill="url(#paint27_linear_189_451)"/>
<path opacity="0.3" d="M192.01 146.786C192.445 146.786 192.798 146.432 192.798 145.996C192.798 145.56 192.445 145.207 192.01 145.207C191.575 145.207 191.223 145.56 191.223 145.996C191.223 146.432 191.575 146.786 192.01 146.786Z" fill="white"/>
<path opacity="0.2" d="M76.4521 275.739C77.7571 275.739 78.8151 274.679 78.8151 273.371C78.8151 272.063 77.7571 271.003 76.4521 271.003C75.147 271.003 74.089 272.063 74.089 273.371C74.089 274.679 75.147 275.739 76.4521 275.739Z" fill="white"/>
<path opacity="0.6" d="M75.8497 275.322C74.645 274.857 73.9963 273.511 74.4133 272.303C74.506 272.118 74.5986 271.932 74.6913 271.746C73.8109 272.675 73.8109 274.161 74.784 275.09C75.7107 275.972 77.1934 275.972 78.1201 274.997C78.2127 274.904 78.2591 274.811 78.3054 274.764C77.703 275.415 76.73 275.6 75.8497 275.322Z" fill="url(#paint28_linear_189_451)"/>
<path opacity="0.3" d="M76.6837 272.396C76.9396 272.396 77.147 272.188 77.147 271.931C77.147 271.675 76.9396 271.467 76.6837 271.467C76.4278 271.467 76.2203 271.675 76.2203 271.931C76.2203 272.188 76.4278 272.396 76.6837 272.396Z" fill="white"/>
<path opacity="0.2" d="M102.863 310.567C104.168 310.567 105.226 309.506 105.226 308.198C105.226 306.89 104.168 305.83 102.863 305.83C101.558 305.83 100.5 306.89 100.5 308.198C100.5 309.506 101.558 310.567 102.863 310.567Z" fill="white"/>
<path opacity="0.6" d="M102.26 310.149C101.056 309.684 100.407 308.338 100.824 307.13C100.917 306.945 101.009 306.759 101.102 306.573C100.222 307.502 100.222 308.988 101.195 309.917C102.121 310.799 103.604 310.799 104.531 309.824C104.623 309.731 104.67 309.638 104.716 309.592C104.114 310.242 103.141 310.474 102.26 310.149Z" fill="url(#paint29_linear_189_451)"/>
<path opacity="0.3" d="M103.094 307.223C103.35 307.223 103.558 307.015 103.558 306.758C103.558 306.502 103.35 306.294 103.094 306.294C102.838 306.294 102.631 306.502 102.631 306.758C102.631 307.015 102.838 307.223 103.094 307.223Z" fill="white"/>
<path opacity="0.2" d="M207.115 402.975C208.42 402.975 209.478 401.915 209.478 400.607C209.478 399.299 208.42 398.238 207.115 398.238C205.81 398.238 204.752 399.299 204.752 400.607C204.752 401.915 205.81 402.975 207.115 402.975Z" fill="white"/>
<path opacity="0.6" d="M206.513 402.557C205.308 402.093 204.66 400.746 205.123 399.539C205.216 399.353 205.308 399.167 205.401 398.981C204.521 399.91 204.521 401.396 205.494 402.325C206.42 403.207 207.903 403.207 208.83 402.232C208.922 402.139 208.969 402.046 209.015 402C208.366 402.65 207.393 402.882 206.513 402.557Z" fill="url(#paint30_linear_189_451)"/>
<path opacity="0.3" d="M207.347 399.631C207.603 399.631 207.81 399.423 207.81 399.166C207.81 398.91 207.603 398.702 207.347 398.702C207.091 398.702 206.884 398.91 206.884 399.166C206.884 399.423 207.091 399.631 207.347 399.631Z" fill="white"/>
<path opacity="0.2" d="M208.505 394.616C209.81 394.616 210.868 393.556 210.868 392.248C210.868 390.94 209.81 389.88 208.505 389.88C207.2 389.88 206.142 390.94 206.142 392.248C206.142 393.556 207.2 394.616 208.505 394.616Z" fill="white"/>
<path opacity="0.6" d="M207.903 394.198C206.698 393.733 206.05 392.387 206.513 391.179C206.606 390.994 206.698 390.808 206.791 390.622C205.911 391.551 205.911 393.037 206.884 393.966C207.81 394.848 209.293 394.848 210.22 393.873C210.313 393.78 210.359 393.687 210.405 393.64C209.756 394.291 208.783 394.523 207.903 394.198Z" fill="url(#paint31_linear_189_451)"/>
<path opacity="0.3" d="M208.737 391.272C208.993 391.272 209.2 391.065 209.2 390.808C209.2 390.552 208.993 390.344 208.737 390.344C208.481 390.344 208.274 390.552 208.274 390.808C208.274 391.065 208.481 391.272 208.737 391.272Z" fill="white"/>
<path opacity="0.6" d="M202.204 392.295C204.149 392.295 205.725 390.715 205.725 388.766C205.725 386.816 204.149 385.236 202.204 385.236C200.259 385.236 198.682 386.816 198.682 388.766C198.682 390.715 200.259 392.295 202.204 392.295Z" fill="#B2A8C1"/>
<path opacity="0.6" d="M201.324 391.69C199.47 391.04 198.544 388.997 199.192 387.14C199.285 386.861 199.47 386.582 199.609 386.304C198.266 387.697 198.312 389.972 199.702 391.319C201.092 392.665 203.362 392.619 204.706 391.226C204.845 391.087 204.938 390.947 205.03 390.808C204.104 391.83 202.667 392.155 201.324 391.69Z" fill="#B2A8C1"/>
<path opacity="0.6" d="M202.575 387.419C202.984 387.419 203.316 387.086 203.316 386.676C203.316 386.265 202.984 385.933 202.575 385.933C202.165 385.933 201.833 386.265 201.833 386.676C201.833 387.086 202.165 387.419 202.575 387.419Z" fill="#B2A8C1"/>
<path opacity="0.2" d="M202.204 392.295C204.149 392.295 205.725 390.715 205.725 388.766C205.725 386.816 204.149 385.236 202.204 385.236C200.259 385.236 198.682 386.816 198.682 388.766C198.682 390.715 200.259 392.295 202.204 392.295Z" fill="white"/>
<path opacity="0.6" d="M201.324 391.69C199.47 391.04 198.544 388.997 199.192 387.14C199.285 386.861 199.47 386.582 199.609 386.304C198.266 387.697 198.312 389.972 199.702 391.319C201.092 392.665 203.362 392.619 204.706 391.226C204.845 391.087 204.938 390.947 205.03 390.808C204.104 391.83 202.667 392.155 201.324 391.69Z" fill="url(#paint32_linear_189_451)"/>
<path opacity="0.3" d="M202.575 387.419C202.984 387.419 203.316 387.086 203.316 386.676C203.316 386.265 202.984 385.933 202.575 385.933C202.165 385.933 201.833 386.265 201.833 386.676C201.833 387.086 202.165 387.419 202.575 387.419Z" fill="white"/>
<path opacity="0.2" d="M203.409 381.66C205.993 381.66 208.088 379.561 208.088 376.97C208.088 374.38 205.993 372.28 203.409 372.28C200.824 372.28 198.729 374.38 198.729 376.97C198.729 379.561 200.824 381.66 203.409 381.66Z" fill="white"/>
<path opacity="0.6" d="M202.25 380.824C199.841 379.942 198.59 377.249 199.47 374.834C199.609 374.463 199.795 374.091 200.026 373.72C199.563 374.184 199.239 374.741 199.007 375.391C198.127 377.806 199.378 380.499 201.787 381.382C203.779 382.125 206.003 381.382 207.208 379.664C205.957 381.01 204.011 381.475 202.25 380.824Z" fill="url(#paint33_linear_189_451)"/>
<path opacity="0.3" d="M203.872 375.112C204.409 375.112 204.845 374.676 204.845 374.137C204.845 373.599 204.409 373.162 203.872 373.162C203.335 373.162 202.899 373.599 202.899 374.137C202.899 374.676 203.335 375.112 203.872 375.112Z" fill="white"/>
<path opacity="0.2" d="M88.499 320.318C89.8041 320.318 90.8621 319.257 90.8621 317.949C90.8621 316.641 89.8041 315.581 88.499 315.581C87.1939 315.581 86.1359 316.641 86.1359 317.949C86.1359 319.257 87.1939 320.318 88.499 320.318Z" fill="white"/>
<path opacity="0.6" d="M87.8967 319.9C86.692 319.435 86.0433 318.089 86.4603 316.881C86.553 316.696 86.6456 316.51 86.7383 316.324C85.8579 317.253 85.8579 318.739 86.831 319.668C87.7576 320.55 89.2404 320.55 90.1671 319.575C90.2597 319.482 90.3061 319.389 90.3524 319.343C89.75 319.993 88.777 320.225 87.8967 319.9Z" fill="url(#paint34_linear_189_451)"/>
<path opacity="0.3" d="M88.7307 316.975C88.9866 316.975 89.194 316.767 89.194 316.51C89.194 316.254 88.9866 316.046 88.7307 316.046C88.4748 316.046 88.2673 316.254 88.2673 316.51C88.2673 316.767 88.4748 316.975 88.7307 316.975Z" fill="white"/>
<path opacity="0.6" d="M201.509 126.354C185.755 131.926 184.365 134.248 177.461 142.42C170.557 150.593 168.611 159.323 158.279 170.004C170.418 152.126 165.553 131.601 201.509 126.354Z" fill="#B2A8C1"/>
<path opacity="0.6" d="M153.738 328.63C132.285 328.259 100.129 332.995 87.2943 326.03C56.1575 309.08 45.8249 263.666 64.9148 234.643C86.136 202.37 103.789 201.255 126.308 192.107C114.956 197.494 97.0246 206.967 90.1671 215.465C79.8345 228.328 62.4127 259.533 72.7453 288.741C83.0779 317.95 104.994 324.915 153.738 328.63Z" fill="#B2A8C1"/>
<path opacity="0.6" d="M198.868 404.6C191.64 375.484 143.266 384.168 170.326 346.555C170.511 346.276 170.743 345.997 170.882 345.719C168.75 351.245 166.712 358.442 168.194 362.9C170.882 371.027 178.342 374.509 187.145 381.382C195.949 388.254 198.127 394.523 198.868 404.6Z" fill="#B2A8C1"/>
<path opacity="0.6" d="M190.435 349.201C177.183 334.481 186.635 318.228 186.821 317.903C186.589 327.191 184.087 337.639 190.435 349.201Z" fill="#B2A8C1"/>
<path d="M212.073 423.081C205.957 432.043 198.451 432.647 199.655 415.001C199.933 411.519 199.655 408.036 198.868 404.6C198.96 404.878 201.926 415.001 201.694 421.085C201.509 427.261 205.957 427.725 212.073 423.081Z" fill="#B2A8C1"/>
<path fill-rule="evenodd" clip-rule="evenodd" d="M235.742 123.359C235.138 122.83 234.073 122.467 232.378 122.498C225.3 122.627 214.527 123.863 202.01 126.398C184.741 129.896 175.932 136.935 171.379 143.193C169.096 146.329 167.867 149.292 167.183 151.557C166.841 152.69 166.635 153.65 166.503 154.372C166.439 154.723 166.392 155.017 166.354 155.254L166.345 155.308C166.312 155.516 166.279 155.724 166.243 155.859C163.324 166.745 154.082 177.48 144.604 183.232C136.02 188.441 125.394 193.269 115.634 196.231C97.7156 201.669 77.1179 216.627 65.6114 234.505C59.8613 243.439 56.8799 251.594 55.8843 259.786C54.8878 267.986 55.8747 276.271 58.1277 285.476C61.6641 299.925 68.4719 310.719 77.8231 318.045C87.1779 325.374 99.1351 329.276 113.043 329.837C119.662 330.104 126.952 329.644 134.119 329.188L134.235 329.181C141.341 328.729 148.331 328.284 154.331 328.586C154.918 328.616 155.666 328.633 156.526 328.652C159.463 328.718 163.71 328.813 167.321 329.545C169.652 330.017 171.86 330.776 173.313 332.067C174.053 332.724 174.609 333.529 174.868 334.506C175.127 335.481 175.075 336.565 174.7 337.757C174.13 339.565 172.882 341.732 171.477 344.093C171.311 344.372 171.142 344.655 170.971 344.942C169.679 347.105 168.274 349.457 167.038 351.967C164.235 357.658 162.392 363.985 164.726 370.368C167.058 376.745 172.435 379.968 178.458 383.154C178.922 383.4 179.389 383.645 179.859 383.891C185.42 386.805 191.321 389.897 195.079 395.652C201.423 405.365 200.297 413.062 199.53 418.299C199.323 419.714 199.143 420.949 199.143 421.996C199.143 424.245 199.708 425.838 200.549 426.872C201.381 427.895 202.536 428.436 203.874 428.498C206.587 428.623 210.111 426.754 212.746 422.722C222.95 407.108 222.503 388.273 212.736 372.515C210.134 368.317 206.171 364.982 202.222 361.66C201.861 361.356 201.501 361.053 201.141 360.749C196.908 357.169 192.804 353.488 191.08 348.718C189.43 344.152 188.204 340.375 187.57 335.73C186.936 331.089 186.895 325.616 187.571 317.644C187.601 317.298 187.639 316.933 187.679 316.551C187.963 313.854 188.337 310.295 186.274 306.228C183.917 301.584 178.295 296.158 165.246 290.887C157.964 287.945 150.193 284.791 143.843 280.687C137.49 276.581 132.449 271.456 130.776 264.522C129.112 257.629 130.572 251.219 133.966 244.572C137.346 237.95 142.684 231.022 148.848 223.08C150.622 220.795 152.23 218.777 153.715 216.914C156.985 212.811 159.659 209.456 162.198 205.634C165.873 200.103 169.255 193.603 173.661 182.501C173.874 181.962 174.097 181.371 174.336 180.736C176.687 174.493 180.593 164.12 192.793 159.481C198.922 156.744 206.471 152.575 213.436 148.13C220.418 143.674 226.763 138.973 230.498 135.189C232.367 133.297 233.807 131.498 234.809 129.877C235.816 128.248 236.355 126.839 236.477 125.72C236.597 124.62 236.314 123.86 235.742 123.359ZM236.082 130.664C235.007 132.403 233.49 134.288 231.563 136.24C227.709 140.145 221.251 144.918 214.242 149.391C207.223 153.87 199.599 158.082 193.383 160.856L193.364 160.865L193.344 160.873C181.792 165.256 178.107 175 175.74 181.26C175.499 181.897 175.272 182.498 175.052 183.053C170.621 194.215 167.195 200.817 163.445 206.462C160.869 210.339 158.135 213.77 154.841 217.904C153.362 219.759 151.771 221.755 150.031 223.997C143.841 231.971 138.602 238.782 135.299 245.252C132.008 251.697 130.677 257.734 132.231 264.171C133.775 270.569 138.449 275.419 144.655 279.43C150.864 283.443 158.496 286.546 165.807 289.5C179.015 294.835 185.019 300.448 187.608 305.551C189.885 310.037 189.456 314.035 189.167 316.732C189.127 317.104 189.09 317.45 189.062 317.77C188.391 325.686 188.439 331.038 189.052 335.527C189.665 340.011 190.846 343.668 192.488 348.209C194.055 352.546 197.829 355.988 202.108 359.607C202.472 359.915 202.84 360.224 203.211 360.536C207.124 363.826 211.273 367.314 214.008 371.727C224.058 387.941 224.544 407.403 213.998 423.541C211.182 427.85 207.218 430.151 203.805 429.992C202.079 429.912 200.512 429.198 199.388 427.816C198.272 426.445 197.646 424.485 197.646 421.996C197.646 420.756 197.844 419.381 198.063 417.861C198.817 412.621 199.821 405.649 193.826 396.47C190.291 391.057 184.734 388.14 179.112 385.19C178.661 384.953 178.209 384.715 177.758 384.477C171.76 381.304 165.87 377.854 163.32 370.882C160.773 363.916 162.834 357.115 165.695 351.306C166.96 348.738 168.398 346.331 169.687 344.173C169.858 343.886 170.026 343.605 170.191 343.327C171.619 340.928 172.765 338.917 173.273 337.307C173.581 336.328 173.594 335.537 173.422 334.89C173.25 334.245 172.879 333.683 172.319 333.185C171.172 332.166 169.289 331.47 167.024 331.011C163.561 330.31 159.536 330.219 156.6 330.152C155.701 330.131 154.903 330.113 154.256 330.081C148.341 329.783 141.421 330.223 134.27 330.678L134.214 330.681C127.064 331.136 119.694 331.602 112.982 331.332C98.8298 330.761 86.5511 326.784 76.9001 319.223C67.2454 311.659 60.2774 300.554 56.674 285.832C54.3967 276.527 53.3727 268.049 54.3987 259.606C55.4255 251.156 58.4999 242.789 64.3529 233.695C76.0525 215.517 96.9429 200.34 115.199 194.799C124.833 191.875 135.345 187.1 143.828 181.952C153.048 176.357 161.998 165.912 164.797 155.471C164.809 155.426 164.83 155.305 164.872 155.042L164.876 155.015C164.914 154.778 164.964 154.469 165.031 154.103C165.171 153.339 165.389 152.323 165.75 151.125C166.474 148.728 167.771 145.608 170.168 142.313C174.975 135.707 184.136 128.492 201.713 124.932C214.286 122.385 225.154 121.133 232.351 121.002C234.226 120.968 235.727 121.357 236.728 122.233C237.761 123.137 238.122 124.434 237.965 125.881C237.81 127.308 237.151 128.934 236.082 130.664Z" fill="#330571"/>
<path fill-rule="evenodd" clip-rule="evenodd" d="M193.383 160.856C199.599 158.081 207.223 153.87 214.242 149.391C221.251 144.917 227.709 140.145 231.563 136.24C233.49 134.288 235.007 132.402 236.082 130.664C237.151 128.934 237.81 127.307 237.965 125.881C238.122 124.434 237.761 123.137 236.728 122.233C235.727 121.357 234.226 120.968 232.351 121.002C225.154 121.133 214.286 122.385 201.713 124.931C184.136 128.491 174.975 135.707 170.168 142.312C167.771 145.607 166.474 148.728 165.75 151.125C165.389 152.323 165.171 153.339 165.031 154.102C164.964 154.469 164.914 154.778 164.876 155.015L164.872 155.042C164.83 155.305 164.809 155.425 164.797 155.471C161.998 165.912 153.048 176.357 143.828 181.952C135.345 187.1 124.833 191.875 115.199 194.799C96.9429 200.34 76.0525 215.517 64.3529 233.695C58.4999 242.789 55.4255 251.156 54.3987 259.606C53.3727 268.049 54.3967 276.527 56.674 285.831C60.2774 300.554 67.2454 311.659 76.9 319.223C86.5511 326.784 98.8298 330.761 112.982 331.332C119.694 331.602 127.064 331.136 134.214 330.681L134.27 330.677C141.421 330.223 148.341 329.783 154.256 330.081C154.903 330.113 155.699 330.131 156.598 330.152L156.6 330.152C159.536 330.218 163.561 330.31 167.024 331.011C169.289 331.469 171.172 332.166 172.319 333.185C172.879 333.682 173.25 334.245 173.422 334.89C173.594 335.537 173.581 336.328 173.273 337.307C172.765 338.917 171.619 340.927 170.191 343.327C170.026 343.604 169.858 343.886 169.687 344.172C168.398 346.331 166.96 348.738 165.695 351.306C162.834 357.115 160.773 363.915 163.32 370.882C165.87 377.854 171.76 381.304 177.758 384.477C178.209 384.715 178.661 384.952 179.112 385.189C184.734 388.14 190.291 391.057 193.826 396.47C199.821 405.648 198.817 412.62 198.063 417.861C197.844 419.381 197.646 420.756 197.646 421.996C197.646 424.485 198.272 426.445 199.388 427.816C200.512 429.197 202.079 429.912 203.805 429.992C207.218 430.15 211.182 427.85 213.998 423.541C224.544 407.403 224.058 387.94 214.008 371.727C211.273 367.314 207.124 363.826 203.211 360.536C202.84 360.224 202.472 359.915 202.108 359.606C197.829 355.988 194.055 352.546 192.488 348.209C190.846 343.668 189.665 340.011 189.052 335.527C188.439 331.038 188.391 325.686 189.062 317.77C189.089 317.451 189.127 317.105 189.166 316.735L189.167 316.732C189.456 314.035 189.885 310.037 187.608 305.551C185.019 300.448 179.015 294.835 165.807 289.499C158.496 286.546 150.864 283.443 144.655 279.43C138.449 275.419 133.775 270.568 132.231 264.171C130.677 257.734 132.008 251.697 135.299 245.252C138.602 238.781 143.841 231.971 150.031 223.997C151.771 221.755 153.362 219.759 154.84 217.904L154.841 217.903C158.135 213.77 160.869 210.339 163.445 206.461C167.195 200.817 170.621 194.215 175.052 183.053C175.272 182.498 175.499 181.897 175.74 181.26C178.107 175 181.792 165.256 193.344 160.872L193.415 161.059C181.954 165.408 178.295 175.069 175.927 181.33C175.687 181.967 175.459 182.57 175.238 183.127C170.804 194.297 167.372 200.912 163.612 206.572C161.031 210.457 158.292 213.893 155 218.024L154.997 218.028C153.519 219.883 151.928 221.879 150.189 224.12C143.996 232.098 138.77 238.892 135.477 245.343C132.2 251.761 130.886 257.748 132.425 264.124C133.952 270.45 138.577 275.264 144.764 279.262C150.954 283.262 158.567 286.359 165.882 289.314C179.111 294.658 185.166 300.296 187.787 305.46C190.09 309.999 189.656 314.046 189.366 316.748L189.365 316.754C189.326 317.125 189.289 317.47 189.262 317.787C188.591 325.695 188.64 331.031 189.251 335.5C189.86 339.963 191.036 343.604 192.676 348.141C194.222 352.42 197.952 355.83 202.237 359.454C202.6 359.76 202.966 360.068 203.335 360.378L203.352 360.393C207.257 363.676 211.426 367.181 214.178 371.622C224.265 387.896 224.757 407.443 214.166 423.65C211.326 427.996 207.303 430.354 203.795 430.192C202.018 430.11 200.396 429.372 199.233 427.942C198.08 426.526 197.446 424.517 197.446 421.996C197.446 420.741 197.646 419.355 197.863 417.843L197.865 417.832C198.242 415.212 198.677 412.182 198.277 408.665C197.876 405.151 196.639 401.143 193.659 396.579C190.156 391.217 184.649 388.322 179.019 385.367L178.998 385.355C178.554 385.122 178.109 384.888 177.664 384.653C171.67 381.483 165.711 378.003 163.133 370.95C160.557 363.906 162.647 357.042 165.516 351.217C166.784 348.643 168.225 346.23 169.513 344.073L169.515 344.07C169.598 343.931 169.68 343.794 169.762 343.657C169.848 343.512 169.934 343.368 170.019 343.225C171.451 340.82 172.583 338.831 173.082 337.247C173.381 336.296 173.389 335.545 173.229 334.941C173.069 334.34 172.722 333.811 172.186 333.335C171.08 332.352 169.24 331.664 166.984 331.207C163.542 330.51 159.535 330.418 156.596 330.352L156.593 330.352C155.696 330.331 154.896 330.313 154.246 330.28C148.345 329.983 141.437 330.422 134.283 330.877L134.226 330.881C127.079 331.335 119.699 331.802 112.974 331.531C98.789 330.96 86.4674 326.972 76.7767 319.38C67.0815 311.785 60.0921 300.638 56.4797 285.879C54.1992 276.561 53.1702 268.057 54.2001 259.582C55.2311 251.097 58.3179 242.702 64.1847 233.586C75.9101 215.369 96.8397 200.162 115.141 194.608C124.758 191.689 135.255 186.921 143.724 181.781C152.909 176.207 161.821 165.8 164.604 155.419C164.613 155.387 164.631 155.28 164.675 155.01L164.679 154.983C164.717 154.746 164.766 154.435 164.834 154.066C164.975 153.297 165.194 152.274 165.559 151.067C166.287 148.653 167.594 145.511 170.007 142.195C174.847 135.542 184.056 128.304 201.673 124.735C214.254 122.187 225.135 120.933 232.348 120.802C234.246 120.767 235.806 121.16 236.86 122.082C237.954 123.04 238.326 124.409 238.164 125.903C238.004 127.37 237.33 129.026 236.252 130.769C235.167 132.523 233.64 134.421 231.706 136.381C227.835 140.302 221.363 145.084 214.349 149.559C207.324 154.042 199.692 158.259 193.465 161.039L193.435 161.052L193.415 161.059L193.344 160.872L193.364 160.865L193.383 160.856ZM235.61 123.509C235.059 123.027 234.052 122.667 232.382 122.698C225.32 122.826 214.559 124.06 202.05 126.594C184.822 130.083 176.06 137.099 171.54 143.31C169.273 146.426 168.053 149.367 167.374 151.615C167.035 152.739 166.831 153.691 166.7 154.408C166.636 154.756 166.589 155.048 166.551 155.285L166.541 155.35C166.509 155.55 166.474 155.766 166.436 155.91C163.501 166.857 154.22 177.63 144.708 183.402C136.11 188.62 125.468 193.455 115.692 196.422C97.8188 201.847 77.2603 216.775 65.7795 234.613C60.0432 243.525 57.0742 251.652 56.0828 259.81C55.0903 267.978 56.0722 276.236 58.3219 285.428C61.8494 299.841 68.6357 310.593 77.9464 317.888C87.2616 325.185 99.1759 329.077 113.051 329.637C119.658 329.903 126.936 329.444 134.106 328.988L134.222 328.981L134.23 328.98C141.33 328.529 148.329 328.084 154.341 328.386C154.924 328.416 155.669 328.433 156.531 328.452L156.538 328.452C159.471 328.518 163.732 328.614 167.361 329.348C169.701 329.822 171.952 330.591 173.446 331.917C174.21 332.595 174.79 333.433 175.062 334.454C175.332 335.473 175.275 336.597 174.891 337.817C174.313 339.652 173.051 341.84 171.649 344.195C171.483 344.474 171.313 344.758 171.142 345.044C169.85 347.208 168.449 349.554 167.217 352.055C164.422 357.73 162.608 363.994 164.914 370.299C167.217 376.596 172.525 379.789 178.551 382.977C179.015 383.222 179.482 383.467 179.952 383.714L179.972 383.724C185.52 386.631 191.46 389.744 195.247 395.542C201.632 405.319 200.497 413.077 199.728 418.328C199.521 419.747 199.343 420.967 199.343 421.996C199.343 424.212 199.899 425.757 200.704 426.745C201.497 427.721 202.598 428.238 203.883 428.298C206.502 428.419 209.968 426.607 212.578 422.613C222.737 407.068 222.295 388.317 212.566 372.62C209.984 368.454 206.047 365.14 202.093 361.813L202.074 361.796C201.719 361.498 201.365 361.2 201.012 360.902C196.784 357.326 192.637 353.613 190.892 348.786C189.241 344.217 188.009 340.424 187.372 335.757C186.735 331.096 186.696 325.607 187.372 317.627C187.401 317.279 187.44 316.913 187.48 316.532L187.48 316.53C187.764 313.836 188.131 310.329 186.095 306.318C183.77 301.736 178.199 296.335 165.171 291.072C157.893 288.132 150.103 284.971 143.734 280.854C137.362 276.736 132.272 271.574 130.582 264.569C128.903 257.615 130.38 251.155 133.788 244.481C137.178 237.839 142.529 230.895 148.69 222.957C150.465 220.672 152.073 218.654 153.557 216.792L153.559 216.789C156.83 212.685 159.498 209.337 162.032 205.523C165.696 200.007 169.072 193.521 173.475 182.427C173.688 181.89 173.91 181.3 174.149 180.665L174.153 180.655C176.503 174.413 180.436 163.968 192.716 159.296C198.834 156.564 206.371 152.401 213.329 147.961C220.307 143.508 226.636 138.817 230.356 135.049C232.217 133.164 233.646 131.377 234.639 129.772C235.638 128.156 236.161 126.777 236.278 125.698C236.393 124.646 236.121 123.957 235.61 123.509ZM192.793 159.481C180.593 164.12 176.687 174.493 174.336 180.736C174.097 181.37 173.874 181.962 173.661 182.501C169.255 193.602 165.873 200.103 162.198 205.634C159.659 209.455 156.986 212.81 153.716 216.913L153.714 216.915C152.23 218.778 150.622 220.795 148.848 223.08C142.684 231.022 137.346 237.95 133.966 244.572C130.572 251.219 129.112 257.629 130.776 264.522C132.449 271.455 137.49 276.581 143.843 280.686C150.193 284.79 157.964 287.945 165.246 290.887C178.295 296.158 183.917 301.584 186.274 306.228C188.337 310.295 187.963 313.854 187.679 316.55C187.639 316.933 187.601 317.297 187.571 317.644C186.895 325.616 186.936 331.089 187.57 335.73C188.204 340.375 189.43 344.152 191.08 348.718C192.804 353.487 196.908 357.168 201.141 360.749C201.501 361.053 201.861 361.356 202.222 361.66C206.171 364.982 210.134 368.317 212.736 372.515C222.503 388.273 222.95 407.107 212.746 422.722C210.111 426.753 206.587 428.623 203.874 428.498C202.536 428.436 201.381 427.895 200.549 426.872C199.708 425.838 199.143 424.245 199.143 421.996C199.143 420.949 199.323 419.714 199.53 418.299C200.297 413.062 201.423 405.365 195.079 395.652C191.321 389.897 185.42 386.805 179.859 383.891L179.851 383.886C179.383 383.641 178.919 383.398 178.458 383.154C172.435 379.968 167.058 376.745 164.726 370.368C162.392 363.985 164.235 357.658 167.038 351.967C168.274 349.457 169.679 347.104 170.971 344.941L171.177 344.595C171.278 344.426 171.378 344.259 171.477 344.092C172.882 341.732 174.13 339.565 174.7 337.757C175.075 336.565 175.127 335.48 174.868 334.506C174.609 333.529 174.053 332.724 173.313 332.066C171.86 330.776 169.652 330.016 167.321 329.544C163.71 328.813 159.463 328.718 156.526 328.652L156.525 328.652C155.665 328.633 154.918 328.616 154.331 328.586C148.331 328.284 141.341 328.729 134.235 329.18L134.119 329.188C126.951 329.643 119.662 330.103 113.043 329.837C99.1351 329.276 87.1779 325.374 77.8231 318.045C68.4719 310.719 61.6641 299.925 58.1276 285.476C55.8746 276.271 54.8878 267.986 55.8843 259.786C56.8799 251.593 59.8613 243.438 65.6114 234.504C77.1179 216.627 97.7156 201.669 115.634 196.231C125.394 193.269 136.02 188.441 144.604 183.231C154.082 177.48 163.324 166.745 166.243 155.858C166.279 155.724 166.312 155.516 166.345 155.308L166.354 155.254C166.392 155.017 166.439 154.722 166.503 154.372C166.635 153.65 166.841 152.69 167.183 151.557C167.867 149.292 169.096 146.329 171.379 143.193C175.932 136.935 184.741 129.895 202.01 126.398C214.527 123.863 225.3 122.626 232.378 122.498C234.073 122.467 235.138 122.83 235.742 123.359C236.314 123.86 236.597 124.62 236.477 125.719C236.355 126.839 235.816 128.248 234.809 129.877C233.807 131.498 232.367 133.296 230.498 135.189C226.763 138.973 220.418 143.674 213.436 148.13C206.471 152.575 198.922 156.744 192.793 159.481Z" fill="#330571"/>
<path fill-rule="evenodd" clip-rule="evenodd" d="M303.399 56.6133C294.578 56.6133 288.22 62.62 280.515 69.9207L280.512 69.9244C280.064 70.342 279.614 70.7652 279.159 71.1926C277.548 72.7056 275.88 74.2723 274.101 75.8368C266.877 82.1777 259.642 84.3973 251.396 86.8577C251.301 86.8867 251.206 86.9158 251.111 86.9449C243.587 89.2432 235.105 91.8343 225.364 98.1912L225.362 98.1922C222.595 99.9881 221.153 101.565 220.458 102.843C219.776 104.099 219.801 105.087 220.018 105.794L220.022 105.807C220.374 107.031 221.491 108.129 223.434 108.932C225.365 109.73 228.005 110.187 231.163 110.187C241.088 110.187 255.298 105.661 262.953 92.8608C267.159 85.7871 277.414 77.6349 301.731 77.6349C302.993 77.6349 304.345 77.6815 305.636 77.7278H306.781C311.083 77.7278 315.043 76.8074 318.034 75.3057C321.047 73.7929 322.958 71.7576 323.423 69.5904L323.424 69.5869C323.64 68.6009 323.639 67.0902 322.495 65.3126C321.337 63.5141 318.974 61.3872 314.348 59.2859C310.344 57.462 306.789 56.6133 303.399 56.6133ZM279.699 68.6283C287.198 61.5215 293.96 55.1133 303.399 55.1133C307.051 55.1133 310.817 56.0294 314.968 57.9202C319.748 60.091 322.388 62.3755 323.756 64.5009C325.137 66.6462 325.182 68.571 324.889 69.9068C324.288 72.7075 321.913 75.0366 318.707 76.6463C315.478 78.2674 311.282 79.2278 306.781 79.2278H305.609L305.596 79.2273C304.297 79.1808 302.966 79.1349 301.731 79.1349C277.767 79.1349 268.098 87.1422 264.242 93.6278L264.241 93.6294C256.235 107.018 241.439 111.687 231.163 111.687C227.88 111.687 225.03 111.215 222.861 110.318C220.705 109.427 219.113 108.066 218.582 106.228C218.246 105.126 218.272 103.724 219.141 102.127C219.998 100.55 221.66 98.8068 224.545 96.9345C234.465 90.4613 243.116 87.8186 250.645 85.5188C250.75 85.4866 250.855 85.4545 250.96 85.4225L250.965 85.421C259.214 82.9596 266.157 80.8135 273.11 74.7105C274.869 73.1638 276.513 71.6192 278.122 70.1088C278.579 69.6796 279.033 69.2531 279.486 68.8301C279.486 68.8294 279.487 68.8288 279.488 68.8281L279.699 68.6283Z" fill="#330571" stroke="#330571" stroke-width="0.2"/>
<defs>
<linearGradient id="paint0_linear_189_451" x1="146.355" y1="121.478" x2="209" y2="430" gradientUnits="userSpaceOnUse">
<stop stop-color="#D554BF"/>
<stop offset="0.510417" stop-color="#5B6CE9"/>
<stop offset="1" stop-color="#8BC2DA"/>
</linearGradient>
<linearGradient id="paint1_linear_189_451" x1="206.534" y1="130.514" x2="183.3" y2="136.373" gradientUnits="userSpaceOnUse">
<stop stop-color="white" stop-opacity="0"/>
<stop offset="0.22" stop-color="white" stop-opacity="0.24"/>
<stop offset="0.6" stop-color="white" stop-opacity="0.64"/>
<stop offset="0.87" stop-color="white" stop-opacity="0.9"/>
<stop offset="1" stop-color="white"/>
</linearGradient>
<linearGradient id="paint2_linear_189_451" x1="206.193" y1="129.002" x2="183.274" y2="134.783" gradientUnits="userSpaceOnUse">
<stop stop-color="white" stop-opacity="0"/>
<stop offset="0.22" stop-color="white" stop-opacity="0.24"/>
<stop offset="0.6" stop-color="white" stop-opacity="0.64"/>
<stop offset="0.87" stop-color="white" stop-opacity="0.9"/>
<stop offset="1" stop-color="white"/>
</linearGradient>
<linearGradient id="paint3_linear_189_451" x1="184.512" y1="310.061" x2="162.56" y2="295.476" gradientUnits="userSpaceOnUse">
<stop stop-color="white" stop-opacity="0"/>
<stop offset="0.22" stop-color="white" stop-opacity="0.24"/>
<stop offset="0.6" stop-color="white" stop-opacity="0.64"/>
<stop offset="0.87" stop-color="white" stop-opacity="0.9"/>
<stop offset="1" stop-color="white"/>
</linearGradient>
<linearGradient id="paint4_linear_189_451" x1="185.726" y1="309.002" x2="164.03" y2="294.403" gradientUnits="userSpaceOnUse">
<stop stop-color="white" stop-opacity="0"/>
<stop offset="0.22" stop-color="white" stop-opacity="0.24"/>
<stop offset="0.6" stop-color="white" stop-opacity="0.64"/>
<stop offset="0.87" stop-color="white" stop-opacity="0.9"/>
<stop offset="1" stop-color="white"/>
</linearGradient>
<linearGradient id="paint5_linear_189_451" x1="138.782" y1="204.455" x2="155.058" y2="191.812" gradientUnits="userSpaceOnUse">
<stop stop-color="white" stop-opacity="0"/>
<stop offset="0.22" stop-color="white" stop-opacity="0.24"/>
<stop offset="0.6" stop-color="white" stop-opacity="0.64"/>
<stop offset="0.87" stop-color="white" stop-opacity="0.9"/>
<stop offset="1" stop-color="white"/>
</linearGradient>
<linearGradient id="paint6_linear_189_451" x1="139.568" y1="205.434" x2="155.707" y2="193.02" gradientUnits="userSpaceOnUse">
<stop stop-color="white" stop-opacity="0"/>
<stop offset="0.22" stop-color="white" stop-opacity="0.24"/>
<stop offset="0.6" stop-color="white" stop-opacity="0.64"/>
<stop offset="0.87" stop-color="white" stop-opacity="0.9"/>
<stop offset="1" stop-color="white"/>
</linearGradient>
<linearGradient id="paint7_linear_189_451" x1="206.643" y1="425.429" x2="213.715" y2="403.192" gradientUnits="userSpaceOnUse">
<stop stop-color="white" stop-opacity="0"/>
<stop offset="0.22" stop-color="white" stop-opacity="0.24"/>
<stop offset="0.6" stop-color="white" stop-opacity="0.64"/>
<stop offset="0.87" stop-color="white" stop-opacity="0.9"/>
<stop offset="1" stop-color="white"/>
</linearGradient>
<linearGradient id="paint8_linear_189_451" x1="207.057" y1="426.186" x2="213.979" y2="403.939" gradientUnits="userSpaceOnUse">
<stop stop-color="white" stop-opacity="0"/>
<stop offset="0.22" stop-color="white" stop-opacity="0.24"/>
<stop offset="0.6" stop-color="white" stop-opacity="0.64"/>
<stop offset="0.87" stop-color="white" stop-opacity="0.9"/>
<stop offset="1" stop-color="white"/>
</linearGradient>
<linearGradient id="paint9_linear_189_451" x1="271.709" y1="55.8633" x2="271.709" y2="110.937" gradientUnits="userSpaceOnUse">
<stop stop-color="#D64D49"/>
<stop offset="1" stop-color="#D04FBA"/>
</linearGradient>
<linearGradient id="paint10_linear_189_451" x1="316.17" y1="64.4373" x2="298.845" y2="59.0681" gradientUnits="userSpaceOnUse">
<stop stop-color="white" stop-opacity="0"/>
<stop offset="0.22" stop-color="white" stop-opacity="0.24"/>
<stop offset="0.6" stop-color="white" stop-opacity="0.64"/>
<stop offset="0.87" stop-color="white" stop-opacity="0.9"/>
<stop offset="1" stop-color="white"/>
</linearGradient>
<linearGradient id="paint11_linear_189_451" x1="316.532" y1="63.365" x2="299.439" y2="58.067" gradientUnits="userSpaceOnUse">
<stop stop-color="white" stop-opacity="0"/>
<stop offset="0.22" stop-color="white" stop-opacity="0.24"/>
<stop offset="0.6" stop-color="white" stop-opacity="0.64"/>
<stop offset="0.87" stop-color="white" stop-opacity="0.9"/>
<stop offset="1" stop-color="white"/>
</linearGradient>
<linearGradient id="paint12_linear_189_451" x1="240.752" y1="102.132" x2="227.271" y2="104.1" gradientUnits="userSpaceOnUse">
<stop stop-color="white" stop-opacity="0"/>
<stop offset="0.22" stop-color="white" stop-opacity="0.24"/>
<stop offset="0.6" stop-color="white" stop-opacity="0.64"/>
<stop offset="0.87" stop-color="white" stop-opacity="0.9"/>
<stop offset="1" stop-color="white"/>
</linearGradient>
<linearGradient id="paint13_linear_189_451" x1="241.596" y1="102.303" x2="228.047" y2="104.282" gradientUnits="userSpaceOnUse">
<stop stop-color="white" stop-opacity="0"/>
<stop offset="0.22" stop-color="white" stop-opacity="0.24"/>
<stop offset="0.6" stop-color="white" stop-opacity="0.64"/>
<stop offset="0.87" stop-color="white" stop-opacity="0.9"/>
<stop offset="1" stop-color="white"/>
</linearGradient>
<linearGradient id="paint14_linear_189_451" x1="83.2691" y1="279.217" x2="91.0337" y2="275.588" gradientUnits="userSpaceOnUse">
<stop offset="0.29" stop-color="white"/>
<stop offset="0.78" stop-color="white" stop-opacity="0"/>
</linearGradient>
<linearGradient id="paint15_linear_189_451" x1="85.2195" y1="295.531" x2="90.1706" y2="293.216" gradientUnits="userSpaceOnUse">
<stop offset="0.29" stop-color="white"/>
<stop offset="0.78" stop-color="white" stop-opacity="0"/>
</linearGradient>
<linearGradient id="paint16_linear_189_451" x1="93.6236" y1="238.007" x2="98.5746" y2="235.693" gradientUnits="userSpaceOnUse">
<stop offset="0.29" stop-color="white"/>
<stop offset="0.78" stop-color="white" stop-opacity="0"/>
</linearGradient>
<linearGradient id="paint17_linear_189_451" x1="245.46" y1="99.9541" x2="248.492" y2="98.537" gradientUnits="userSpaceOnUse">
<stop offset="0.29" stop-color="white"/>
<stop offset="0.78" stop-color="white" stop-opacity="0"/>
</linearGradient>
<linearGradient id="paint18_linear_189_451" x1="249.924" y1="94.5399" x2="251.39" y2="93.8549" gradientUnits="userSpaceOnUse">
<stop offset="0.29" stop-color="white"/>
<stop offset="0.78" stop-color="white" stop-opacity="0"/>
</linearGradient>
<linearGradient id="paint19_linear_189_451" x1="309.87" y1="71.163" x2="312.902" y2="69.7459" gradientUnits="userSpaceOnUse">
<stop offset="0.29" stop-color="white"/>
<stop offset="0.78" stop-color="white" stop-opacity="0"/>
</linearGradient>
<linearGradient id="paint20_linear_189_451" x1="305.778" y1="67.5758" x2="307.764" y2="66.6474" gradientUnits="userSpaceOnUse">
<stop offset="0.29" stop-color="white"/>
<stop offset="0.78" stop-color="white" stop-opacity="0"/>
</linearGradient>
<linearGradient id="paint21_linear_189_451" x1="185.247" y1="156.937" x2="188.594" y2="155.373" gradientUnits="userSpaceOnUse">
<stop offset="0.29" stop-color="white"/>
<stop offset="0.78" stop-color="white" stop-opacity="0"/>
</linearGradient>
<linearGradient id="paint22_linear_189_451" x1="199.146" y1="149.508" x2="202.493" y2="147.944" gradientUnits="userSpaceOnUse">
<stop offset="0.29" stop-color="white"/>
<stop offset="0.78" stop-color="white" stop-opacity="0"/>
</linearGradient>
<linearGradient id="paint23_linear_189_451" x1="226.857" y1="128.203" x2="228.944" y2="127.227" gradientUnits="userSpaceOnUse">
<stop offset="0.29" stop-color="white"/>
<stop offset="0.78" stop-color="white" stop-opacity="0"/>
</linearGradient>
<linearGradient id="paint24_linear_189_451" x1="223.684" y1="134.058" x2="226.049" y2="132.953" gradientUnits="userSpaceOnUse">
<stop offset="0.29" stop-color="white"/>
<stop offset="0.78" stop-color="white" stop-opacity="0"/>
</linearGradient>
<linearGradient id="paint25_linear_189_451" x1="90.0537" y1="265.062" x2="94.5386" y2="262.965" gradientUnits="userSpaceOnUse">
<stop offset="0.29" stop-color="white"/>
<stop offset="0.78" stop-color="white" stop-opacity="0"/>
</linearGradient>
<linearGradient id="paint26_linear_189_451" x1="100.954" y1="298.073" x2="107.791" y2="294.877" gradientUnits="userSpaceOnUse">
<stop offset="0.29" stop-color="white"/>
<stop offset="0.78" stop-color="white" stop-opacity="0"/>
</linearGradient>
<linearGradient id="paint27_linear_189_451" x1="188.186" y1="150.101" x2="193.441" y2="147.645" gradientUnits="userSpaceOnUse">
<stop offset="0.29" stop-color="white"/>
<stop offset="0.78" stop-color="white" stop-opacity="0"/>
</linearGradient>
<linearGradient id="paint28_linear_189_451" x1="74.33" y1="274.422" x2="77.5257" y2="272.929" gradientUnits="userSpaceOnUse">
<stop offset="0.29" stop-color="white"/>
<stop offset="0.78" stop-color="white" stop-opacity="0"/>
</linearGradient>
<linearGradient id="paint29_linear_189_451" x1="100.746" y1="309.253" x2="103.937" y2="307.761" gradientUnits="userSpaceOnUse">
<stop offset="0.29" stop-color="white"/>
<stop offset="0.78" stop-color="white" stop-opacity="0"/>
</linearGradient>
<linearGradient id="paint30_linear_189_451" x1="205.002" y1="401.665" x2="208.193" y2="400.173" gradientUnits="userSpaceOnUse">
<stop offset="0.29" stop-color="white"/>
<stop offset="0.78" stop-color="white" stop-opacity="0"/>
</linearGradient>
<linearGradient id="paint31_linear_189_451" x1="206.391" y1="393.306" x2="209.587" y2="391.812" gradientUnits="userSpaceOnUse">
<stop offset="0.29" stop-color="white"/>
<stop offset="0.78" stop-color="white" stop-opacity="0"/>
</linearGradient>
<linearGradient id="paint32_linear_189_451" x1="199.059" y1="390.384" x2="203.854" y2="388.143" gradientUnits="userSpaceOnUse">
<stop offset="0.29" stop-color="white"/>
<stop offset="0.78" stop-color="white" stop-opacity="0"/>
</linearGradient>
<linearGradient id="paint33_linear_189_451" x1="199.235" y1="379.102" x2="205.571" y2="376.141" gradientUnits="userSpaceOnUse">
<stop offset="0.29" stop-color="white"/>
<stop offset="0.78" stop-color="white" stop-opacity="0"/>
</linearGradient>
<linearGradient id="paint34_linear_189_451" x1="86.3821" y1="319.004" x2="89.5736" y2="317.512" gradientUnits="userSpaceOnUse">
<stop offset="0.29" stop-color="white"/>
<stop offset="0.78" stop-color="white" stop-opacity="0"/>
</linearGradient>
</defs>
</svg>
